<svg xmlns="http://www.w3.org/2000/svg" width="1202" height="1621" viewBox="0 0 1202 1621">
  <g id="Group_256" data-name="Group 256" transform="translate(-5663 -4332)">
    <g id="Ellipse_128" data-name="Ellipse 128" transform="translate(5735 4735)" fill="#416a74" stroke="rgba(0,0,0,0.73)" stroke-width="4">
      <circle cx="34.5" cy="34.5" r="34.5" stroke="none"/>
      <circle cx="34.5" cy="34.5" r="32.5" fill="none"/>
    </g>
    <g id="Ellipse_129" data-name="Ellipse 129" transform="translate(5804 4438)" fill="#416a74" stroke="rgba(0,0,0,0.73)" stroke-width="4">
      <circle cx="34.5" cy="34.5" r="34.5" stroke="none"/>
      <circle cx="34.5" cy="34.5" r="32.5" fill="none"/>
    </g>
    <g id="Ellipse_130" data-name="Ellipse 130" transform="translate(5804 4864)" fill="#416a74" stroke="rgba(0,0,0,0.73)" stroke-width="4">
      <circle cx="34.5" cy="34.5" r="34.5" stroke="none"/>
      <circle cx="34.5" cy="34.5" r="32.5" fill="none"/>
    </g>
    <g id="Ellipse_131" data-name="Ellipse 131" transform="translate(5804 4635)" fill="#416a74" stroke="rgba(0,0,0,0.73)" stroke-width="4">
      <circle cx="34.5" cy="34.5" r="34.5" stroke="none"/>
      <circle cx="34.5" cy="34.5" r="32.5" fill="none"/>
    </g>
    <g id="Ellipse_132" data-name="Ellipse 132" transform="translate(5735 5317)" fill="#416a74" stroke="rgba(0,0,0,0.73)" stroke-width="4">
      <circle cx="34.5" cy="34.5" r="34.5" stroke="none"/>
      <circle cx="34.5" cy="34.5" r="32.5" fill="none"/>
    </g>
    <g id="Ellipse_133" data-name="Ellipse 133" transform="translate(5663 5231)" fill="#416a74" stroke="rgba(0,0,0,0.73)" stroke-width="4">
      <circle cx="40" cy="40" r="40" stroke="none"/>
      <circle cx="40" cy="40" r="38" fill="none"/>
    </g>
    <g id="Ellipse_134" data-name="Ellipse 134" transform="translate(5873 4343)" fill="#416a74" stroke="rgba(0,0,0,0.73)" stroke-width="4">
      <circle cx="40" cy="40" r="40" stroke="none"/>
      <circle cx="40" cy="40" r="38" fill="none"/>
    </g>
    <g id="Ellipse_135" data-name="Ellipse 135" transform="translate(5942 5813)" fill="#416a74" stroke="rgba(0,0,0,0.73)" stroke-width="4">
      <circle cx="40" cy="40" r="40" stroke="none"/>
      <circle cx="40" cy="40" r="38" fill="none"/>
    </g>
    <g id="Ellipse_136" data-name="Ellipse 136" transform="translate(5735 5580)" fill="#416a74" stroke="rgba(0,0,0,0.73)" stroke-width="4">
      <circle cx="34.5" cy="34.5" r="34.5" stroke="none"/>
      <circle cx="34.5" cy="34.5" r="32.5" fill="none"/>
    </g>
    <g id="Ellipse_137" data-name="Ellipse 137" transform="translate(5805 5873)" fill="#416a74" stroke="rgba(0,0,0,0.73)" stroke-width="4">
      <circle cx="40" cy="40" r="40" stroke="none"/>
      <circle cx="40" cy="40" r="38" fill="none"/>
    </g>
    <g id="Ellipse_138" data-name="Ellipse 138" transform="translate(5873 5532)" fill="#416a74" stroke="rgba(0,0,0,0.73)" stroke-width="4">
      <circle cx="34.5" cy="34.5" r="34.5" stroke="none"/>
      <circle cx="34.5" cy="34.5" r="32.5" fill="none"/>
    </g>
    <g id="Ellipse_139" data-name="Ellipse 139" transform="translate(5663 4660)" fill="#416a74" stroke="rgba(0,0,0,0.73)" stroke-width="4">
      <circle cx="40" cy="40" r="40" stroke="none"/>
      <circle cx="40" cy="40" r="38" fill="none"/>
    </g>
    <g id="Ellipse_140" data-name="Ellipse 140" transform="translate(5663 4491)" fill="#416a74" stroke="rgba(0,0,0,0.73)" stroke-width="4">
      <circle cx="40" cy="40" r="40" stroke="none"/>
      <circle cx="40" cy="40" r="38" fill="none"/>
    </g>
    <g id="Ellipse_141" data-name="Ellipse 141" transform="translate(5734 4368)" fill="#416a74" stroke="rgba(0,0,0,0.73)" stroke-width="4">
      <circle cx="40" cy="40" r="40" stroke="none"/>
      <circle cx="40" cy="40" r="38" fill="none"/>
    </g>
    <g id="Ellipse_142" data-name="Ellipse 142" transform="translate(5663 5068)" fill="#416a74" stroke="rgba(0,0,0,0.73)" stroke-width="4">
      <circle cx="40" cy="40" r="40" stroke="none"/>
      <circle cx="40" cy="40" r="38" fill="none"/>
    </g>
    <g id="Ellipse_143" data-name="Ellipse 143" transform="translate(5663 4872)" fill="#416a74" stroke="rgba(0,0,0,0.73)" stroke-width="4">
      <circle cx="40" cy="40" r="40" stroke="none"/>
      <circle cx="40" cy="40" r="38" fill="none"/>
    </g>
    <g id="Ellipse_144" data-name="Ellipse 144" transform="translate(5735 4965)" fill="#416a74" stroke="rgba(0,0,0,0.73)" stroke-width="4">
      <circle cx="34.5" cy="34.5" r="34.5" stroke="none"/>
      <circle cx="34.5" cy="34.5" r="32.5" fill="none"/>
    </g>
    <g id="Ellipse_145" data-name="Ellipse 145" transform="translate(5663 5427)" fill="#416a74" stroke="rgba(0,0,0,0.73)" stroke-width="4">
      <circle cx="40" cy="40" r="40" stroke="none"/>
      <circle cx="40" cy="40" r="38" fill="none"/>
    </g>
    <g id="Ellipse_146" data-name="Ellipse 146" transform="translate(5804 5213)" fill="#416a74" stroke="rgba(0,0,0,0.73)" stroke-width="4">
      <circle cx="34.5" cy="34.5" r="34.5" stroke="none"/>
      <circle cx="34.5" cy="34.5" r="32.5" fill="none"/>
    </g>
    <g id="Ellipse_147" data-name="Ellipse 147" transform="translate(5663 5696)" fill="#416a74" stroke="rgba(0,0,0,0.73)" stroke-width="4">
      <circle cx="40" cy="40" r="40" stroke="none"/>
      <circle cx="40" cy="40" r="38" fill="none"/>
    </g>
    <g id="Ellipse_148" data-name="Ellipse 148" transform="translate(5804 5453)" fill="#416a74" stroke="rgba(0,0,0,0.73)" stroke-width="4">
      <circle cx="34.5" cy="34.5" r="34.5" stroke="none"/>
      <circle cx="34.5" cy="34.5" r="32.5" fill="none"/>
    </g>
    <g id="Ellipse_149" data-name="Ellipse 149" transform="translate(5873 5722)" fill="#416a74" stroke="rgba(0,0,0,0.73)" stroke-width="4">
      <circle cx="34.5" cy="34.5" r="34.5" stroke="none"/>
      <circle cx="34.5" cy="34.5" r="32.5" fill="none"/>
    </g>
    <g id="Ellipse_150" data-name="Ellipse 150" transform="translate(5734 5811)" fill="#416a74" stroke="rgba(0,0,0,0.73)" stroke-width="4">
      <circle cx="40" cy="40" r="40" stroke="none"/>
      <circle cx="40" cy="40" r="38" fill="none"/>
    </g>
    <g id="Ellipse_151" data-name="Ellipse 151" transform="translate(5873 4523)" fill="#416a74" stroke="rgba(0,0,0,0.73)" stroke-width="4">
      <circle cx="34.5" cy="34.5" r="34.5" stroke="none"/>
      <circle cx="34.5" cy="34.5" r="32.5" fill="none"/>
    </g>
    <g id="Ellipse_152" data-name="Ellipse 152" transform="translate(5942 4666)" fill="#416a74" stroke="rgba(0,0,0,0.73)" stroke-width="4">
      <circle cx="34.5" cy="34.5" r="34.5" stroke="none"/>
      <circle cx="34.5" cy="34.5" r="32.5" fill="none"/>
    </g>
    <g id="Ellipse_153" data-name="Ellipse 153" transform="translate(5873 4760)" fill="#416a74" stroke="rgba(0,0,0,0.73)" stroke-width="4">
      <circle cx="34.5" cy="34.5" r="34.5" stroke="none"/>
      <circle cx="34.5" cy="34.5" r="32.5" fill="none"/>
    </g>
    <g id="Ellipse_154" data-name="Ellipse 154" transform="translate(5873 5317)" fill="#416a74" stroke="rgba(0,0,0,0.73)" stroke-width="4">
      <circle cx="34.5" cy="34.5" r="34.5" stroke="none"/>
      <circle cx="34.5" cy="34.5" r="32.5" fill="none"/>
    </g>
    <g id="Ellipse_155" data-name="Ellipse 155" transform="translate(5873 5028)" fill="#416a74" stroke="rgba(0,0,0,0.73)" stroke-width="4">
      <circle cx="34.5" cy="34.5" r="34.5" stroke="none"/>
      <circle cx="34.5" cy="34.5" r="32.5" fill="none"/>
    </g>
    <g id="Ellipse_156" data-name="Ellipse 156" transform="translate(5942 4846)" fill="#416a74" stroke="rgba(0,0,0,0.73)" stroke-width="4">
      <circle cx="34.5" cy="34.5" r="34.5" stroke="none"/>
      <circle cx="34.5" cy="34.5" r="32.5" fill="none"/>
    </g>
    <g id="Ellipse_157" data-name="Ellipse 157" transform="translate(5944 4401)" fill="#416a74" stroke="rgba(0,0,0,0.73)" stroke-width="4">
      <circle cx="40" cy="40" r="40" stroke="none"/>
      <circle cx="40" cy="40" r="38" fill="none"/>
    </g>
    <g id="Ellipse_158" data-name="Ellipse 158" transform="translate(5942 5440)" fill="#416a74" stroke="rgba(0,0,0,0.73)" stroke-width="4">
      <circle cx="34.5" cy="34.5" r="34.5" stroke="none"/>
      <circle cx="34.5" cy="34.5" r="32.5" fill="none"/>
    </g>
    <g id="Ellipse_159" data-name="Ellipse 159" transform="translate(5942 5106)" fill="#416a74" stroke="rgba(0,0,0,0.73)" stroke-width="4">
      <circle cx="34.5" cy="34.5" r="34.5" stroke="none"/>
      <circle cx="34.5" cy="34.5" r="32.5" fill="none"/>
    </g>
    <g id="Ellipse_160" data-name="Ellipse 160" transform="translate(6006 4518)" fill="#416a74" stroke="rgba(0,0,0,0.73)" stroke-width="4">
      <circle cx="40" cy="40" r="40" stroke="none"/>
      <circle cx="40" cy="40" r="38" fill="none"/>
    </g>
    <g id="Ellipse_161" data-name="Ellipse 161" transform="translate(6006 4957)" fill="#416a74" stroke="rgba(0,0,0,0.73)" stroke-width="4">
      <circle cx="40" cy="40" r="40" stroke="none"/>
      <circle cx="40" cy="40" r="38" fill="none"/>
    </g>
    <g id="Ellipse_162" data-name="Ellipse 162" transform="translate(6006 4730)" fill="#416a74" stroke="rgba(0,0,0,0.73)" stroke-width="4">
      <circle cx="40" cy="40" r="40" stroke="none"/>
      <circle cx="40" cy="40" r="38" fill="none"/>
    </g>
    <g id="Ellipse_163" data-name="Ellipse 163" transform="translate(6012 5716)" fill="#416a74" stroke="rgba(0,0,0,0.73)" stroke-width="4">
      <circle cx="40" cy="40" r="40" stroke="none"/>
      <circle cx="40" cy="40" r="38" fill="none"/>
    </g>
    <g id="Ellipse_164" data-name="Ellipse 164" transform="translate(6006 5192)" fill="#416a74" stroke="rgba(0,0,0,0.73)" stroke-width="4">
      <circle cx="40" cy="40" r="40" stroke="none"/>
      <circle cx="40" cy="40" r="38" fill="none"/>
    </g>
    <g id="Ellipse_165" data-name="Ellipse 165" transform="translate(6008 5342)" fill="#416a74" stroke="rgba(0,0,0,0.73)" stroke-width="4">
      <circle cx="40" cy="40" r="40" stroke="none"/>
      <circle cx="40" cy="40" r="38" fill="none"/>
    </g>
    <g id="Ellipse_166" data-name="Ellipse 166" transform="translate(6012 5561)" fill="#416a74" stroke="rgba(0,0,0,0.73)" stroke-width="4">
      <circle cx="40" cy="40" r="40" stroke="none"/>
      <circle cx="40" cy="40" r="38" fill="none"/>
    </g>
    <g id="Ellipse_167" data-name="Ellipse 167" transform="translate(6514 4831)" fill="#416a74" stroke="rgba(0,0,0,0.73)" stroke-width="4">
      <circle cx="34.5" cy="34.5" r="34.5" stroke="none"/>
      <circle cx="34.5" cy="34.5" r="32.5" fill="none"/>
    </g>
    <g id="Ellipse_168" data-name="Ellipse 168" transform="translate(6583 4423)" fill="#416a74" stroke="rgba(0,0,0,0.73)" stroke-width="4">
      <circle cx="34.5" cy="34.5" r="34.5" stroke="none"/>
      <circle cx="34.5" cy="34.5" r="32.5" fill="none"/>
    </g>
    <g id="Ellipse_169" data-name="Ellipse 169" transform="translate(6583 4968)" fill="#416a74" stroke="rgba(0,0,0,0.73)" stroke-width="4">
      <circle cx="34.5" cy="34.5" r="34.5" stroke="none"/>
      <circle cx="34.5" cy="34.5" r="32.5" fill="none"/>
    </g>
    <g id="Ellipse_170" data-name="Ellipse 170" transform="translate(6583 4716)" fill="#416a74" stroke="rgba(0,0,0,0.73)" stroke-width="4">
      <circle cx="34.5" cy="34.5" r="34.5" stroke="none"/>
      <circle cx="34.5" cy="34.5" r="32.5" fill="none"/>
    </g>
    <g id="Ellipse_171" data-name="Ellipse 171" transform="translate(6514 5079)" fill="#416a74" stroke="rgba(0,0,0,0.73)" stroke-width="4">
      <circle cx="34.5" cy="34.5" r="34.5" stroke="none"/>
      <circle cx="34.5" cy="34.5" r="32.5" fill="none"/>
    </g>
    <g id="Ellipse_172" data-name="Ellipse 172" transform="translate(6445 4376)" fill="#416a74" stroke="rgba(0,0,0,0.73)" stroke-width="4">
      <circle cx="34.5" cy="34.5" r="34.5" stroke="none"/>
      <circle cx="34.5" cy="34.5" r="32.5" fill="none"/>
    </g>
    <g id="Ellipse_173" data-name="Ellipse 173" transform="translate(6445 4718)" fill="#416a74" stroke="rgba(0,0,0,0.73)" stroke-width="4">
      <circle cx="34.5" cy="34.5" r="34.5" stroke="none"/>
      <circle cx="34.5" cy="34.5" r="32.5" fill="none"/>
    </g>
    <g id="Ellipse_174" data-name="Ellipse 174" transform="translate(6514 4605)" fill="#416a74" stroke="rgba(0,0,0,0.73)" stroke-width="4">
      <circle cx="34.5" cy="34.5" r="34.5" stroke="none"/>
      <circle cx="34.5" cy="34.5" r="32.5" fill="none"/>
    </g>
    <g id="Ellipse_175" data-name="Ellipse 175" transform="translate(6445 4908)" fill="#416a74" stroke="rgba(0,0,0,0.73)" stroke-width="4">
      <circle cx="34.5" cy="34.5" r="34.5" stroke="none"/>
      <circle cx="34.5" cy="34.5" r="32.5" fill="none"/>
    </g>
    <g id="Ellipse_176" data-name="Ellipse 176" transform="translate(6671 4525)" fill="#416a74" stroke="rgba(0,0,0,0.73)" stroke-width="4">
      <circle cx="40" cy="40" r="40" stroke="none"/>
      <circle cx="40" cy="40" r="38" fill="none"/>
    </g>
    <g id="Ellipse_177" data-name="Ellipse 177" transform="translate(6711 4638)" fill="#416a74" stroke="rgba(0,0,0,0.73)" stroke-width="4">
      <circle cx="40" cy="40" r="40" stroke="none"/>
      <circle cx="40" cy="40" r="38" fill="none"/>
    </g>
    <g id="Ellipse_178" data-name="Ellipse 178" transform="translate(6647 5102)" fill="#416a74" stroke="rgba(0,0,0,0.73)" stroke-width="4">
      <circle cx="40" cy="40" r="40" stroke="none"/>
      <circle cx="40" cy="40" r="38" fill="none"/>
    </g>
    <g id="Ellipse_179" data-name="Ellipse 179" transform="translate(6376 4515)" fill="#416a74" stroke="rgba(0,0,0,0.73)" stroke-width="4">
      <circle cx="34.5" cy="34.5" r="34.5" stroke="none"/>
      <circle cx="34.5" cy="34.5" r="32.5" fill="none"/>
    </g>
    <g id="Ellipse_180" data-name="Ellipse 180" transform="translate(6440 5249)" fill="#416a74" stroke="rgba(0,0,0,0.73)" stroke-width="4">
      <circle cx="40" cy="40" r="40" stroke="none"/>
      <circle cx="40" cy="40" r="38" fill="none"/>
    </g>
    <g id="Ellipse_181" data-name="Ellipse 181" transform="translate(6314 4332)" fill="#416a74" stroke="rgba(0,0,0,0.73)" stroke-width="4">
      <circle cx="40" cy="40" r="40" stroke="none"/>
      <circle cx="40" cy="40" r="38" fill="none"/>
    </g>
    <g id="Ellipse_182" data-name="Ellipse 182" transform="translate(6785 4883)" fill="#416a74" stroke="rgba(0,0,0,0.73)" stroke-width="4">
      <circle cx="40" cy="40" r="40" stroke="none"/>
      <circle cx="40" cy="40" r="38" fill="none"/>
    </g>
    <g id="Ellipse_183" data-name="Ellipse 183" transform="translate(6785 4730)" fill="#416a74" stroke="rgba(0,0,0,0.73)" stroke-width="4">
      <circle cx="40" cy="40" r="40" stroke="none"/>
      <circle cx="40" cy="40" r="38" fill="none"/>
    </g>
    <g id="Ellipse_184" data-name="Ellipse 184" transform="translate(6578 5192)" fill="#416a74" stroke="rgba(0,0,0,0.73)" stroke-width="4">
      <circle cx="40" cy="40" r="40" stroke="none"/>
      <circle cx="40" cy="40" r="38" fill="none"/>
    </g>
    <g id="Ellipse_185" data-name="Ellipse 185" transform="translate(6716 4963)" fill="#416a74" stroke="rgba(0,0,0,0.73)" stroke-width="4">
      <circle cx="40" cy="40" r="40" stroke="none"/>
      <circle cx="40" cy="40" r="38" fill="none"/>
    </g>
    <g id="Ellipse_186" data-name="Ellipse 186" transform="translate(6652 4809)" fill="#416a74" stroke="rgba(0,0,0,0.73)" stroke-width="4">
      <circle cx="34.5" cy="34.5" r="34.5" stroke="none"/>
      <circle cx="34.5" cy="34.5" r="32.5" fill="none"/>
    </g>
    <g id="Ellipse_187" data-name="Ellipse 187" transform="translate(6376 5111)" fill="#416a74" stroke="rgba(0,0,0,0.73)" stroke-width="4">
      <circle cx="34.5" cy="34.5" r="34.5" stroke="none"/>
      <circle cx="34.5" cy="34.5" r="32.5" fill="none"/>
    </g>
    <g id="Ellipse_188" data-name="Ellipse 188" transform="translate(6314 5271)" fill="#416a74" stroke="rgba(0,0,0,0.73)" stroke-width="4">
      <circle cx="40" cy="40" r="40" stroke="none"/>
      <circle cx="40" cy="40" r="38" fill="none"/>
    </g>
    <g id="Ellipse_189" data-name="Ellipse 189" transform="translate(6234 4386)" fill="#416a74" stroke="rgba(0,0,0,0.73)" stroke-width="4">
      <circle cx="40" cy="40" r="40" stroke="none"/>
      <circle cx="40" cy="40" r="38" fill="none"/>
    </g>
    <g id="Ellipse_190" data-name="Ellipse 190" transform="translate(6238 5231)" fill="#416a74" stroke="rgba(0,0,0,0.73)" stroke-width="4">
      <circle cx="40" cy="40" r="40" stroke="none"/>
      <circle cx="40" cy="40" r="38" fill="none"/>
    </g>
    <line id="Line_158" data-name="Line 158" x2="64" y2="64" transform="translate(5774.5 4408.5)" fill="none" stroke="rgba(0,0,0,0.73)" stroke-width="4"/>
    <line id="Line_159" data-name="Line 159" x1="75" y2="89" transform="translate(5838.5 4383.5)" fill="none" stroke="rgba(0,0,0,0.73)" stroke-width="4"/>
    <line id="Line_160" data-name="Line 160" x1="70" y1="57" transform="translate(5913.5 4383.5)" fill="none" stroke="rgba(0,0,0,0.73)" stroke-width="4"/>
    <line id="Line_161" data-name="Line 161" x1="69" y1="85" transform="translate(5838.5 4472.5)" fill="none" stroke="rgba(0,0,0,0.73)" stroke-width="4"/>
    <line id="Line_162" data-name="Line 162" x1="76" y2="117" transform="translate(5907.5 4440.5)" fill="none" stroke="rgba(0,0,0,0.73)" stroke-width="4"/>
    <line id="Line_163" data-name="Line 163" x1="138" transform="translate(5907.5 4557.5)" fill="none" stroke="rgba(0,0,0,0.73)" stroke-width="4"/>
    <line id="Line_164" data-name="Line 164" x2="62" y2="117" transform="translate(5983.5 4440.5)" fill="none" stroke="rgba(0,0,0,0.73)" stroke-width="4"/>
    <line id="Line_165" data-name="Line 165" y1="25" x2="139" transform="translate(5774.5 4383.5)" fill="none" stroke="rgba(0,0,0,0.73)" stroke-width="4"/>
    <line id="Line_166" data-name="Line 166" y1="123" x2="69" transform="translate(5705.5 4408.5)" fill="none" stroke="rgba(0,0,0,0.73)" stroke-width="4"/>
    <line id="Line_167" data-name="Line 167" x1="133" y2="59" transform="translate(5705.5 4472.5)" fill="none" stroke="rgba(0,0,0,0.73)" stroke-width="4"/>
    <line id="Line_168" data-name="Line 168" x2="133" y2="138" transform="translate(5705.5 4531.5)" fill="none" stroke="rgba(0,0,0,0.73)" stroke-width="4"/>
    <line id="Line_169" data-name="Line 169" y1="112" x2="69" transform="translate(5838.5 4557.5)" fill="none" stroke="rgba(0,0,0,0.73)" stroke-width="4"/>
    <line id="Line_170" data-name="Line 170" x2="138" y2="31" transform="translate(5838.5 4669.5)" fill="none" stroke="rgba(0,0,0,0.73)" stroke-width="4"/>
    <line id="Line_171" data-name="Line 171" x1="69" y2="143" transform="translate(5976.5 4557.5)" fill="none" stroke="rgba(0,0,0,0.73)" stroke-width="4"/>
    <line id="Line_172" data-name="Line 172" x1="69" y1="69" transform="translate(5976.5 4700.5)" fill="none" stroke="rgba(0,0,0,0.73)" stroke-width="4"/>
    <line id="Line_173" data-name="Line 173" y1="212" transform="translate(6045.5 4557.5)" fill="none" stroke="rgba(0,0,0,0.73)" stroke-width="4"/>
    <line id="Line_174" data-name="Line 174" y1="94" x2="69" transform="translate(5907.5 4700.5)" fill="none" stroke="rgba(0,0,0,0.73)" stroke-width="4"/>
    <line id="Line_175" data-name="Line 175" y1="25" x2="138" transform="translate(5907.5 4769.5)" fill="none" stroke="rgba(0,0,0,0.73)" stroke-width="4"/>
    <line id="Line_176" data-name="Line 176" y1="111" x2="69" transform="translate(5976.5 4769.5)" fill="none" stroke="rgba(0,0,0,0.73)" stroke-width="4"/>
    <line id="Line_177" data-name="Line 177" x1="69" y1="86" transform="translate(5907.5 4794.5)" fill="none" stroke="rgba(0,0,0,0.73)" stroke-width="4"/>
    <line id="Line_178" data-name="Line 178" x1="69" y2="104" transform="translate(5838.5 4794.5)" fill="none" stroke="rgba(0,0,0,0.73)" stroke-width="4"/>
    <line id="Line_179" data-name="Line 179" y1="100" x2="69" transform="translate(5769.5 4669.5)" fill="none" stroke="rgba(0,0,0,0.73)" stroke-width="4"/>
    <line id="Line_180" data-name="Line 180" y1="169" x2="4" transform="translate(5701.5 4531.5)" fill="none" stroke="rgba(0,0,0,0.73)" stroke-width="4"/>
    <line id="Line_181" data-name="Line 181" y1="30" x2="138" transform="translate(5700.5 4669.5)" fill="none" stroke="rgba(0,0,0,0.73)" stroke-width="4"/>
    <line id="Line_182" data-name="Line 182" x1="69" y1="69" transform="translate(5700.5 4700.5)" fill="none" stroke="rgba(0,0,0,0.73)" stroke-width="4"/>
    <line id="Line_183" data-name="Line 183" x2="3" y2="212" transform="translate(5700.5 4700.5)" fill="none" stroke="rgba(0,0,0,0.73)" stroke-width="4"/>
    <line id="Line_184" data-name="Line 184" y1="14" x2="135" transform="translate(5703.5 4898.5)" fill="none" stroke="rgba(0,0,0,0.73)" stroke-width="4"/>
    <line id="Line_185" data-name="Line 185" y1="101" x2="69" transform="translate(5769.5 4898.5)" fill="none" stroke="rgba(0,0,0,0.73)" stroke-width="4"/>
    <line id="Line_186" data-name="Line 186" y1="227" transform="translate(6045.5 4769.5)" fill="none" stroke="rgba(0,0,0,0.73)" stroke-width="4"/>
    <line id="Line_187" data-name="Line 187" x1="69" y1="116" transform="translate(5976.5 4880.5)" fill="none" stroke="rgba(0,0,0,0.73)" stroke-width="4"/>
    <line id="Line_188" data-name="Line 188" y1="18" x2="138" transform="translate(5838.5 4880.5)" fill="none" stroke="rgba(0,0,0,0.73)" stroke-width="4"/>
    <line id="Line_189" data-name="Line 189" x1="69" y1="129" transform="translate(5769.5 4769.5)" fill="none" stroke="rgba(0,0,0,0.73)" stroke-width="4"/>
    <line id="Line_190" data-name="Line 190" y1="196" transform="translate(5703.5 4912.5)" fill="none" stroke="rgba(0,0,0,0.73)" stroke-width="4"/>
    <line id="Line_191" data-name="Line 191" y1="107" x2="66" transform="translate(5703.5 4999.5)" fill="none" stroke="rgba(0,0,0,0.73)" stroke-width="4"/>
    <line id="Line_192" data-name="Line 192" x2="138" y2="63" transform="translate(5769.5 4999.5)" fill="none" stroke="rgba(0,0,0,0.73)" stroke-width="4"/>
    <line id="Line_193" data-name="Line 193" x1="69" y1="164" transform="translate(5838.5 4898.5)" fill="none" stroke="rgba(0,0,0,0.73)" stroke-width="4"/>
    <line id="Line_194" data-name="Line 194" y1="182" x2="69" transform="translate(5907.5 4880.5)" fill="none" stroke="rgba(0,0,0,0.73)" stroke-width="4"/>
    <line id="Line_195" data-name="Line 195" x1="133" y1="139" transform="translate(5705.5 5108.5)" fill="none" stroke="rgba(0,0,0,0.73)" stroke-width="4"/>
    <line id="Line_196" data-name="Line 196" y1="107" x2="139" transform="translate(5838.5 5140.5)" fill="none" stroke="rgba(0,0,0,0.73)" stroke-width="4"/>
    <line id="Line_197" data-name="Line 197" x1="69" y1="78" transform="translate(5907.5 5062.5)" fill="none" stroke="rgba(0,0,0,0.73)" stroke-width="4"/>
    <line id="Line_198" data-name="Line 198" x1="69" y2="185" transform="translate(5838.5 5062.5)" fill="none" stroke="rgba(0,0,0,0.73)" stroke-width="4"/>
    <line id="Line_199" data-name="Line 199" y2="163" transform="translate(5703.5 5108.5)" fill="none" stroke="rgba(0,0,0,0.73)" stroke-width="4"/>
    <line id="Line_200" data-name="Line 200" x2="64" y2="80" transform="translate(5705.5 5271.5)" fill="none" stroke="rgba(0,0,0,0.73)" stroke-width="4"/>
    <line id="Line_201" data-name="Line 201" y1="104" x2="69" transform="translate(5769.5 5247.5)" fill="none" stroke="rgba(0,0,0,0.73)" stroke-width="4"/>
    <line id="Line_202" data-name="Line 202" x2="138" transform="translate(5769.5 5351.5)" fill="none" stroke="rgba(0,0,0,0.73)" stroke-width="4"/>
    <line id="Line_203" data-name="Line 203" y1="120" x2="138" transform="translate(5907.5 5231.5)" fill="none" stroke="rgba(0,0,0,0.73)" stroke-width="4"/>
    <line id="Line_204" data-name="Line 204" x1="68" y2="145" transform="translate(5977.5 4996.5)" fill="none" stroke="rgba(0,0,0,0.73)" stroke-width="4"/>
    <line id="Line_205" data-name="Line 205" y1="66" x2="138" transform="translate(5907.5 4996.5)" fill="none" stroke="rgba(0,0,0,0.73)" stroke-width="4"/>
    <line id="Line_206" data-name="Line 206" x1="2" y1="149" transform="translate(6045.5 5230.5)" fill="none" stroke="rgba(0,0,0,0.73)" stroke-width="4"/>
    <line id="Line_207" data-name="Line 207" x2="140" y2="28" transform="translate(5907.5 5351.5)" fill="none" stroke="rgba(0,0,0,0.73)" stroke-width="4"/>
    <line id="Line_208" data-name="Line 208" x2="71" y2="62" transform="translate(5774.5 5851.5)" fill="none" stroke="rgba(0,0,0,0.73)" stroke-width="4"/>
    <line id="Line_209" data-name="Line 209" y1="157" x2="63" transform="translate(5845.5 5756.5)" fill="none" stroke="rgba(0,0,0,0.73)" stroke-width="4"/>
    <line id="Line_210" data-name="Line 210" x2="74" y2="97" transform="translate(5908.5 5756.5)" fill="none" stroke="rgba(0,0,0,0.73)" stroke-width="4"/>
    <line id="Line_211" data-name="Line 211" y1="97" x2="70" transform="translate(5982.5 5756.5)" fill="none" stroke="rgba(0,0,0,0.73)" stroke-width="4"/>
    <line id="Line_212" data-name="Line 212" x1="145" transform="translate(5907.5 5756.5)" fill="none" stroke="rgba(0,0,0,0.73)" stroke-width="4"/>
    <line id="Line_213" data-name="Line 213" y1="155" x2="144" transform="translate(5908.5 5601.5)" fill="none" stroke="rgba(0,0,0,0.73)" stroke-width="4"/>
    <line id="Line_214" data-name="Line 214" y2="155" transform="translate(6052.5 5601.5)" fill="none" stroke="rgba(0,0,0,0.73)" stroke-width="4"/>
    <line id="Line_215" data-name="Line 215" y1="190" transform="translate(5908.5 5566.5)" fill="none" stroke="rgba(0,0,0,0.73)" stroke-width="4"/>
    <line id="Line_216" data-name="Line 216" x1="139" y2="48" transform="translate(5769.5 5566.5)" fill="none" stroke="rgba(0,0,0,0.73)" stroke-width="4"/>
    <line id="Line_217" data-name="Line 217" y1="127" x2="69" transform="translate(5769.5 5487.5)" fill="none" stroke="rgba(0,0,0,0.73)" stroke-width="4"/>
    <line id="Line_218" data-name="Line 218" x2="70" y2="79" transform="translate(5838.5 5487.5)" fill="none" stroke="rgba(0,0,0,0.73)" stroke-width="4"/>
    <line id="Line_219" data-name="Line 219" y1="92" x2="68" transform="translate(5908.5 5474.5)" fill="none" stroke="rgba(0,0,0,0.73)" stroke-width="4"/>
    <line id="Line_220" data-name="Line 220" y1="13" x2="138" transform="translate(5838.5 5474.5)" fill="none" stroke="rgba(0,0,0,0.73)" stroke-width="4"/>
    <line id="Line_221" data-name="Line 221" x1="76" y1="127" transform="translate(5976.5 5474.5)" fill="none" stroke="rgba(0,0,0,0.73)" stroke-width="4"/>
    <line id="Line_222" data-name="Line 222" y1="95" x2="70" transform="translate(5976.5 5379.5)" fill="none" stroke="rgba(0,0,0,0.73)" stroke-width="4"/>
    <line id="Line_223" data-name="Line 223" x2="5" y2="222" transform="translate(6047.5 5379.5)" fill="none" stroke="rgba(0,0,0,0.73)" stroke-width="4"/>
    <line id="Line_224" data-name="Line 224" x1="64" y1="147" transform="translate(5705.5 5467.5)" fill="none" stroke="rgba(0,0,0,0.73)" stroke-width="4"/>
    <line id="Line_225" data-name="Line 225" x2="133" y2="20" transform="translate(5705.5 5467.5)" fill="none" stroke="rgba(0,0,0,0.73)" stroke-width="4"/>
    <line id="Line_226" data-name="Line 226" y1="116" x2="64" transform="translate(5705.5 5351.5)" fill="none" stroke="rgba(0,0,0,0.73)" stroke-width="4"/>
    <line id="Line_227" data-name="Line 227" x1="69" y1="136" transform="translate(5769.5 5351.5)" fill="none" stroke="rgba(0,0,0,0.73)" stroke-width="4"/>
    <line id="Line_228" data-name="Line 228" x1="64" y2="122" transform="translate(5705.5 5614.5)" fill="none" stroke="rgba(0,0,0,0.73)" stroke-width="4"/>
    <line id="Line_229" data-name="Line 229" x2="71" y2="115" transform="translate(5703.5 5736.5)" fill="none" stroke="rgba(0,0,0,0.73)" stroke-width="4"/>
    <line id="Line_230" data-name="Line 230" y1="95" x2="133" transform="translate(5774.5 5756.5)" fill="none" stroke="rgba(0,0,0,0.73)" stroke-width="4"/>
    <line id="Line_231" data-name="Line 231" x2="203" y2="20" transform="translate(5705.5 5736.5)" fill="none" stroke="rgba(0,0,0,0.73)" stroke-width="4"/>
    <line id="Line_232" data-name="Line 232" y1="136" x2="70" transform="translate(5838.5 5351.5)" fill="none" stroke="rgba(0,0,0,0.73)" stroke-width="4"/>
    <line id="Line_233" data-name="Line 233" x1="68" y1="123" transform="translate(5908.5 5351.5)" fill="none" stroke="rgba(0,0,0,0.73)" stroke-width="4"/>
    <line id="Line_234" data-name="Line 234" x2="70" y2="104" transform="translate(5838.5 5247.5)" fill="none" stroke="rgba(0,0,0,0.73)" stroke-width="4"/>
    <line id="Line_235" data-name="Line 235" y1="24" x2="133" transform="translate(5705.5 5247.5)" fill="none" stroke="rgba(0,0,0,0.73)" stroke-width="4"/>
    <line id="Line_236" data-name="Line 236" y1="17" x2="207" transform="translate(5838.5 5230.5)" fill="none" stroke="rgba(0,0,0,0.73)" stroke-width="4"/>
    <line id="Line_237" data-name="Line 237" y1="46" x2="202" transform="translate(5705.5 5062.5)" fill="none" stroke="rgba(0,0,0,0.73)" stroke-width="4"/>
    <line id="Line_238" data-name="Line 238" x1="66" y1="87" transform="translate(5703.5 4912.5)" fill="none" stroke="rgba(0,0,0,0.73)" stroke-width="4"/>
    <line id="Line_239" data-name="Line 239" y1="143" x2="66" transform="translate(5703.5 4769.5)" fill="none" stroke="rgba(0,0,0,0.73)" stroke-width="4"/>
    <line id="Line_240" data-name="Line 240" y2="234" transform="translate(6045.5 4996.5)" fill="none" stroke="rgba(0,0,0,0.73)" stroke-width="4"/>
    <line id="Line_241" data-name="Line 241" x2="68" y2="90" transform="translate(5977.5 5141.5)" fill="none" stroke="rgba(0,0,0,0.73)" stroke-width="4"/>
    <line id="Line_242" data-name="Line 242" y1="196" transform="translate(5703.5 5271.5)" fill="none" stroke="rgba(0,0,0,0.73)" stroke-width="4"/>
    <line id="Line_243" data-name="Line 243" y1="269" transform="translate(5703.5 5467.5)" fill="none" stroke="rgba(0,0,0,0.73)" stroke-width="4"/>
    <line id="Line_244" data-name="Line 244" x1="137" y2="60" transform="translate(5845.5 5853.5)" fill="none" stroke="rgba(0,0,0,0.73)" stroke-width="4"/>
    <line id="Line_245" data-name="Line 245" x1="82" y2="53" transform="translate(6272.5 4372.5)" fill="none" stroke="rgba(0,0,0,0.73)" stroke-width="4"/>
    <line id="Line_246" data-name="Line 246" x1="207" y2="15" transform="translate(6272.5 4410.5)" fill="none" stroke="rgba(0,0,0,0.73)" stroke-width="4"/>
    <line id="Line_247" data-name="Line 247" x1="138" y1="124" transform="translate(6272.5 4425.5)" fill="none" stroke="rgba(0,0,0,0.73)" stroke-width="4"/>
    <line id="Line_248" data-name="Line 248" y1="139" x2="69" transform="translate(6410.5 4410.5)" fill="none" stroke="rgba(0,0,0,0.73)" stroke-width="4"/>
    <line id="Line_249" data-name="Line 249" x2="125" y2="38" transform="translate(6354.5 4372.5)" fill="none" stroke="rgba(0,0,0,0.73)" stroke-width="4"/>
    <line id="Line_250" data-name="Line 250" x1="138" y1="47" transform="translate(6479.5 4410.5)" fill="none" stroke="rgba(0,0,0,0.73)" stroke-width="4"/>
    <line id="Line_251" data-name="Line 251" x1="207" y2="92" transform="translate(6410.5 4457.5)" fill="none" stroke="rgba(0,0,0,0.73)" stroke-width="4"/>
    <line id="Line_252" data-name="Line 252" x1="69" y2="182" transform="translate(6548.5 4457.5)" fill="none" stroke="rgba(0,0,0,0.73)" stroke-width="4"/>
    <line id="Line_253" data-name="Line 253" x2="138" y2="90" transform="translate(6410.5 4549.5)" fill="none" stroke="rgba(0,0,0,0.73)" stroke-width="4"/>
    <line id="Line_254" data-name="Line 254" x2="69" y2="203" transform="translate(6410.5 4549.5)" fill="none" stroke="rgba(0,0,0,0.73)" stroke-width="4"/>
    <line id="Line_255" data-name="Line 255" x1="69" y2="113" transform="translate(6479.5 4639.5)" fill="none" stroke="rgba(0,0,0,0.73)" stroke-width="4"/>
    <line id="Line_256" data-name="Line 256" x1="138" y2="2" transform="translate(6479.5 4750.5)" fill="none" stroke="rgba(0,0,0,0.73)" stroke-width="4"/>
    <line id="Line_257" data-name="Line 257" x1="69" y1="113" transform="translate(6479.5 4752.5)" fill="none" stroke="rgba(0,0,0,0.73)" stroke-width="4"/>
    <line id="Line_258" data-name="Line 258" y1="190" transform="translate(6479.5 4752.5)" fill="none" stroke="rgba(0,0,0,0.73)" stroke-width="4"/>
    <line id="Line_259" data-name="Line 259" y1="77" x2="69" transform="translate(6479.5 4865.5)" fill="none" stroke="rgba(0,0,0,0.73)" stroke-width="4"/>
    <line id="Line_260" data-name="Line 260" x2="138" y2="60" transform="translate(6479.5 4942.5)" fill="none" stroke="rgba(0,0,0,0.73)" stroke-width="4"/>
    <line id="Line_261" data-name="Line 261" x2="69" y2="137" transform="translate(6548.5 4865.5)" fill="none" stroke="rgba(0,0,0,0.73)" stroke-width="4"/>
    <line id="Line_262" data-name="Line 262" x1="69" y2="159" transform="translate(6617.5 4843.5)" fill="none" stroke="rgba(0,0,0,0.73)" stroke-width="4"/>
    <line id="Line_263" data-name="Line 263" x1="138" transform="translate(6617.5 5002.5)" fill="none" stroke="rgba(0,0,0,0.73)" stroke-width="4"/>
    <line id="Line_264" data-name="Line 264" x1="69" y1="155" transform="translate(6686.5 4847.5)" fill="none" stroke="rgba(0,0,0,0.73)" stroke-width="4"/>
    <line id="Line_265" data-name="Line 265" y1="18" x2="138" transform="translate(6548.5 4847.5)" fill="none" stroke="rgba(0,0,0,0.73)" stroke-width="4"/>
    <line id="Line_266" data-name="Line 266" x2="69" y2="97" transform="translate(6617.5 4750.5)" fill="none" stroke="rgba(0,0,0,0.73)" stroke-width="4"/>
    <line id="Line_267" data-name="Line 267" x1="138" y2="78" transform="translate(6686.5 4769.5)" fill="none" stroke="rgba(0,0,0,0.73)" stroke-width="4"/>
    <line id="Line_268" data-name="Line 268" x1="69" y1="92" transform="translate(6755.5 4677.5)" fill="none" stroke="rgba(0,0,0,0.73)" stroke-width="4"/>
    <line id="Line_269" data-name="Line 269" y1="73" x2="138" transform="translate(6617.5 4677.5)" fill="none" stroke="rgba(0,0,0,0.73)" stroke-width="4"/>
    <line id="Line_270" data-name="Line 270" x1="69" y1="111" transform="translate(6548.5 4639.5)" fill="none" stroke="rgba(0,0,0,0.73)" stroke-width="4"/>
    <line id="Line_271" data-name="Line 271" x1="162" y2="75" transform="translate(6548.5 4564.5)" fill="none" stroke="rgba(0,0,0,0.73)" stroke-width="4"/>
    <line id="Line_272" data-name="Line 272" x2="45" y2="113" transform="translate(6710.5 4564.5)" fill="none" stroke="rgba(0,0,0,0.73)" stroke-width="4"/>
    <line id="Line_273" data-name="Line 273" x1="93" y1="106" transform="translate(6617.5 4458.5)" fill="none" stroke="rgba(0,0,0,0.73)" stroke-width="4"/>
    <line id="Line_274" data-name="Line 274" y1="170" x2="69" transform="translate(6686.5 4677.5)" fill="none" stroke="rgba(0,0,0,0.73)" stroke-width="4"/>
    <line id="Line_275" data-name="Line 275" x2="138" y2="76" transform="translate(6686.5 4847.5)" fill="none" stroke="rgba(0,0,0,0.73)" stroke-width="4"/>
    <line id="Line_276" data-name="Line 276" y2="154" transform="translate(6824.5 4769.5)" fill="none" stroke="rgba(0,0,0,0.73)" stroke-width="4"/>
    <line id="Line_277" data-name="Line 277" y1="79" x2="69" transform="translate(6755.5 4923.5)" fill="none" stroke="rgba(0,0,0,0.73)" stroke-width="4"/>
    <line id="Line_278" data-name="Line 278" x1="69" y2="139" transform="translate(6686.5 5002.5)" fill="none" stroke="rgba(0,0,0,0.73)" stroke-width="4"/>
    <line id="Line_279" data-name="Line 279" y1="90" x2="69" transform="translate(6617.5 5141.5)" fill="none" stroke="rgba(0,0,0,0.73)" stroke-width="4"/>
    <line id="Line_280" data-name="Line 280" x1="138" y2="57" transform="translate(6479.5 5231.5)" fill="none" stroke="rgba(0,0,0,0.73)" stroke-width="4"/>
    <line id="Line_281" data-name="Line 281" y1="23" x2="125" transform="translate(6354.5 5288.5)" fill="none" stroke="rgba(0,0,0,0.73)" stroke-width="4"/>
    <line id="Line_282" data-name="Line 282" x1="82" y1="46" transform="translate(6272.5 5265.5)" fill="none" stroke="rgba(0,0,0,0.73)" stroke-width="4"/>
    <line id="Line_283" data-name="Line 283" x1="138" y2="120" transform="translate(6272.5 5145.5)" fill="none" stroke="rgba(0,0,0,0.73)" stroke-width="4"/>
    <line id="Line_284" data-name="Line 284" x1="56" y2="166" transform="translate(6354.5 5145.5)" fill="none" stroke="rgba(0,0,0,0.73)" stroke-width="4"/>
    <line id="Line_285" data-name="Line 285" x2="69" y2="143" transform="translate(6410.5 5145.5)" fill="none" stroke="rgba(0,0,0,0.73)" stroke-width="4"/>
    <line id="Line_286" data-name="Line 286" y1="203" x2="69" transform="translate(6410.5 4942.5)" fill="none" stroke="rgba(0,0,0,0.73)" stroke-width="4"/>
    <line id="Line_287" data-name="Line 287" y1="32" x2="138" transform="translate(6410.5 5113.5)" fill="none" stroke="rgba(0,0,0,0.73)" stroke-width="4"/>
    <line id="Line_288" data-name="Line 288" x2="69" y2="171" transform="translate(6479.5 4942.5)" fill="none" stroke="rgba(0,0,0,0.73)" stroke-width="4"/>
    <line id="Line_289" data-name="Line 289" x1="69" y2="111" transform="translate(6548.5 5002.5)" fill="none" stroke="rgba(0,0,0,0.73)" stroke-width="4"/>
    <line id="Line_290" data-name="Line 290" x1="138" y1="25" transform="translate(6548.5 5113.5)" fill="none" stroke="rgba(0,0,0,0.73)" stroke-width="4"/>
    <line id="Line_291" data-name="Line 291" x1="69" y1="118" transform="translate(6548.5 5113.5)" fill="none" stroke="rgba(0,0,0,0.73)" stroke-width="4"/>
    <g id="Ellipse_191" data-name="Ellipse 191" transform="translate(6125 4375)" fill="#416a74" stroke="rgba(0,0,0,0.73)" stroke-width="4">
      <circle cx="40" cy="40" r="40" stroke="none"/>
      <circle cx="40" cy="40" r="38" fill="none"/>
    </g>
    <line id="Line_292" data-name="Line 292" y1="147" x2="114" transform="translate(6045.5 4410.5)" fill="none" stroke="rgba(0,0,0,0.73)" stroke-width="4"/>
    <line id="Line_293" data-name="Line 293" x1="113" y1="15" transform="translate(6159.5 4410.5)" fill="none" stroke="rgba(0,0,0,0.73)" stroke-width="4"/>
    <g id="Ellipse_192" data-name="Ellipse 192" transform="translate(6136 5254)" fill="#416a74" stroke="rgba(0,0,0,0.73)" stroke-width="4">
      <circle cx="40" cy="40" r="40" stroke="none"/>
      <circle cx="40" cy="40" r="38" fill="none"/>
    </g>
    <line id="Line_294" data-name="Line 294" x1="125" y1="58" transform="translate(6045.5 5230.5)" fill="none" stroke="rgba(0,0,0,0.73)" stroke-width="4"/>
    <line id="Line_295" data-name="Line 295" y1="23" x2="102" transform="translate(6170.5 5265.5)" fill="none" stroke="rgba(0,0,0,0.73)" stroke-width="4"/>
  </g>
</svg>
