<svg xmlns="http://www.w3.org/2000/svg" width="1603.284" height="803.432" viewBox="0 0 1603.284 803.432">
  <path id="Intersection_1" data-name="Intersection 1" d="M1703.576,951.5l16.351-45.721Zm-88.059,0-49.8-74.071A21,21,0,0,1,1533,860q0-.269.006-.535a21.005,21.005,0,0,1,19.024-20.375l-9.06-96.181Q1542,743,1541,743a21,21,0,1,1,20.9-23.072q.1,1.022.1,2.071a21,21,0,0,1-19.031,20.91l9.06,96.181Q1553,839,1554,839a21,21,0,0,1,21,21,21.237,21.237,0,0,1-.23,3.121,21,21,0,0,1-9.051,14.307Zm-126.208,0,52.567-74.351Zm-65.024,0-21.515-75.3a21.068,21.068,0,0,1-15.986-1.845L1343.844,951.5l42.941-77.148A21,21,0,0,1,1376.095,858q-.093-.99-.094-2a21,21,0,0,1,42,0c0,.179,0,.357-.006.535a21.012,21.012,0,0,1-15.224,19.662Zm-206.89,0-29.576-55.931A21.008,21.008,0,1,1,1198.905,875q.093.99.095,2a21,21,0,0,1-11.181,18.569Zm-61.1,0,15.832-54.333Zm-84.079,0-13.543-16.767A14.522,14.522,0,1,1,1064,923.5a14.438,14.438,0,0,1-5.331,11.233Zm-54.092,0,20.875-18.006Zm-84.191,0,14.459-82.809Zm-114.219,0-28.8-24.8A21.034,21.034,0,1,1,796,913a20.951,20.951,0,0,1-5.086,13.7Zm-104.311,0,41.959-27.1Zm-94.2,0,11.5-104.624Zm-85.3,0-28.669-24.045A21,21,0,1,1,513,913a20.943,20.943,0,0,1-5.766,14.455Zm-72.965,0,15.683-22.312Zm-75.577,0-7.172-126.533Q379.6,825,379,825a20.982,20.982,0,1,1,1.189-.033Zm-56.691,0-35.519-56.7A21,21,0,1,1,281.4,856.16,21.261,21.261,0,0,1,284,856a21,21,0,0,1,11.15,38.8Zm-95.154,0,37.029-56.9ZM1745.06,896.722A21,21,0,0,1,1706,886a21.236,21.236,0,0,1,.23-3.121A21.008,21.008,0,0,1,1727,865a20.945,20.945,0,0,1,15.7,7.057l77.8-69.071-77.8,69.071a21.011,21.011,0,0,1,2.355,24.665l75.441,44.793Zm-681.737,22.386,94.959-34.868-94.959,34.868ZM968.6,860.87l69.392,53.814Zm85.613,48.911,47.831-161.639-47.831,161.639Zm-259.49-4.023,137.563-50.517L794.718,905.758ZM652.839,837.086l104.322,64.829ZM509.458,901.325l107.533-64.518L509.458,901.325ZM393.984,818.714l82.084,80.6ZM496.61,892.508l46.941-145.516L496.61,892.508ZM775,892v0Zm799.77-28.878,131.461,19.757ZM1198.905,875,1376.095,858,1198.905,875ZM220.5,864.956l42.864,8.129ZM1557.623,734.836l153.71,137.182ZM948.388,868.691A21.035,21.035,0,1,1,952,869,21.033,21.033,0,0,1,948.388,868.691Zm782.6-3.312,28.38-146.629-28.38,146.629ZM300.652,864.2,362.347,816.8,300.652,864.2Zm1117.342-7.669,115.012,2.931ZM1116.932,747.011l52.137,110.978Zm69.192,110.618,75.11-179.111-75.11,179.111ZM264.6,721.84,281.4,856.16Zm368.1,125.036A21.029,21.029,0,1,1,635,847,21.239,21.239,0,0,1,632.705,846.876Zm779.568-5.288,112.543-106.2-112.543,106.2ZM794.718,790.241l137.564,50.517Zm485.725-113.629,105.114,161.777ZM968.646,835.2,1091.354,740.8,968.646,835.2Zm-67.49-101.81L943.483,828.8ZM655.079,819.833l99.841-30.665-99.841,30.665Zm-91.4-76.9,57.64,67.134Zm79.382,63.67L690.939,691.4,643.062,806.6ZM754.92,789.168A21.009,21.009,0,1,1,775,804,21.02,21.02,0,0,1,754.92,789.168Zm-356.767,6.208,132.694-59.752L398.153,795.376Zm-120.39-80.5,85.475,75.247Zm108.031,69.247,40.414-118.247L385.793,784.123Zm1388.77-69.3a19.5,19.5,0,1,1-13.993-34.727l-16.761-137.278a14.692,14.692,0,0,1-2.309.183,14.495,14.495,0,1,1,12.148-6.58L1820.5,579l-66.852-42.584a14.507,14.507,0,0,1-9.839,6.4l16.761,137.278q.952-.093,1.93-.094a19.5,19.5,0,0,1,12.064,34.821L1820.5,773.7ZM793.2,772.513l80.124-46.174L793.2,772.513ZM220.5,768.99l30.558-50.063ZM710.466,689.6l52.6,76.125Zm391.573,58.546A21.011,21.011,0,0,1,1087,728q0-.639.038-1.267a21,21,0,0,1,18.219-19.555l-16.513-125.355A21.215,21.215,0,0,1,1086,582a20.969,20.969,0,1,1,2.743-.177l16.513,125.355A21.225,21.225,0,0,1,1108,707a21,21,0,1,1-5.961,41.142Zm-558.488-1.151A21,21,0,0,1,549.589,706l-2-102.017a29.5,29.5,0,1,1,30.1-33.822A29.814,29.814,0,0,1,578,574.5,29.491,29.491,0,0,1,548.5,604c-.305,0-.608,0-.912-.014l2,102.017c.137,0,.274,0,.411,0a21,21,0,1,1-6.449,40.991ZM873.322,726.34a21,21,0,0,1,14.8-32.143,21.037,21.037,0,0,1,18.991,7.33A20.915,20.915,0,0,1,912,715q0,.578-.031,1.147a21,21,0,0,1-38.647,10.193Zm38.647-10.193,175.069,10.587Zm-660.911,2.781a21,21,0,0,1,9.3-38.864Q261.171,680,262,680a21,21,0,0,1,2.6,41.839,21.249,21.249,0,0,1-2.6.16A20.907,20.907,0,0,1,251.058,718.927Zm1310.842,1,181.255-17.962L1561.9,719.929Zm-992.194-.2,109.589-40.452L569.705,719.726Zm557.6,0,122.386-52.451-122.386,52.451Zm162.156-55.986,231.075,53.521ZM998.577,642.893l92.846,72.213Zm-548.31,15.061,82.465,57.091Zm269.24,18.59,151.085,33.487ZM1554.943,706.3l80.4-90.545-80.4,90.545Zm-101.288-86.343,73.688,86.091ZM907.108,701.526,966.813,644.5l-59.705,57.021ZM220.5,694.192l20.774,3.408Zm61.5.377L413,652.432,282,694.569Zm592.8-57.119L888.117,694.2ZM690.939,691.4A21.037,21.037,0,1,1,699,693,21.072,21.072,0,0,1,690.939,691.4ZM1779.4,689.766l41.1-25.646-41.1,25.646Zm-110.887-76.66,79.613,73.216ZM251.566,567.971l8.792,112.092ZM1261.234,678.518a21,21,0,0,1,6.125-40.455l-8.716-111.126q-.814.062-1.642.063a20.976,20.976,0,1,1,1.642-.063l8.716,111.126q.813-.062,1.642-.063a21,21,0,1,1-7.766,40.518ZM426.207,665.877a21.006,21.006,0,0,1,10.32-40.582l23.291-136.741A24.569,24.569,0,1,1,464.5,489a24.545,24.545,0,0,1-4.682-.446L436.527,625.295a21,21,0,1,1-10.32,40.582ZM719,665.569,850,623.432,719,665.569ZM573.081,590.816l108.266,69.8ZM708.573,653.3,753.428,565.7,708.573,653.3ZM1289,652.568,1420,610.431,1289,652.568ZM966.813,644.5A20.928,20.928,0,0,1,961,630a21.268,21.268,0,0,1,.138-2.421,21,21,0,1,1,5.675,16.925Zm137.7-73.589,145.968,78.169ZM850,623.432A21,21,0,1,1,891,617a21.268,21.268,0,0,1-.138,2.421A21.005,21.005,0,0,1,850,623.432ZM267.79,557.527l146.695,78.558Zm182.968,77.259,72.165-45.578-72.165,45.578Zm440.1-15.364,70.276,8.158ZM1420,610.431a21,21,0,1,1,40.984-7.128q.012.347.012.7a21,21,0,0,1-41,6.431Zm215.343,5.322a24.457,24.457,0,0,1-9.311-17.925q-.035-.659-.035-1.327a24.51,24.51,0,0,1,18.878-23.852L1609.12,430.372a21,21,0,1,1-6.694-41.314l-8.773-111.122q-.818.063-1.652.064a20.968,20.968,0,1,1,1.652-.064l8.773,111.122Q1603.2,389,1604,389a21,21,0,0,1,5.12,41.372l35.759,142.277a24.5,24.5,0,1,1-9.532,43.1ZM999.5,618.389l69-45.778-69,45.778ZM942.963,517.768,975.1,610.16ZM780.575,558.5l71.849,47ZM1460.988,603.3l165.047-5.476L1460.988,603.3Zm-581.415-5,42.1-82.23-42.1,82.23Zm395.943-82.389,145.968,78.169Zm55.373-116.384,99.223,185.938ZM1449.572,585.3l44.855-87.607L1449.572,585.3Zm221.142-2.651,59.223-45.4-59.223,45.4ZM1520.42,492.092,1631.688,580.8ZM577.684,570.164,742.16,549.606,577.684,570.164ZM753.428,565.7a21.016,21.016,0,0,1-11.268-16.09A21.288,21.288,0,0,1,742,547a20.99,20.99,0,0,1,19.358-20.938l-8.716-111.126Q751.828,415,751,415a20.979,20.979,0,1,1,1.642-.063l8.716,111.126Q762.172,526,763,526a21,21,0,1,1-9.572,39.7ZM233.6,558.237a19.51,19.51,0,0,1,23.327-28.152l55.495-143.493A21.025,21.025,0,1,1,320,388a21.008,21.008,0,0,1-7.577-1.409L256.928,530.085a19.5,19.5,0,0,1-5.362,37.886q-.529.028-1.066.029A19.49,19.49,0,0,1,233.6,558.237Zm-13.1,8.178,13.1-8.178ZM1106,554.568,1237,512.431,1106,554.568ZM960.412,503.612,1066.9,552.27ZM479.18,484.117,530.024,551.5ZM554.5,545.61l20.143-76.3L554.5,545.61Zm541.077-3.306,44.855-87.608L1095.573,542.3Zm-62.6-119.371,45.5,118.458ZM268.41,540.774l173.049-67.926L268.41,540.774ZM783,540.569,907.172,500.63,783,540.569ZM220.5,528.412l13.831,9.184Zm378.016-69.5,145.967,78.168ZM1753.8,520.823l66.7-46.208-66.7,46.208Zm-832.128-4.749A29.61,29.61,0,1,1,934.5,519,29.607,29.607,0,0,1,921.675,516.073Zm698.714-92.941,110.6,95.376Zm124.17,91.191,20.849-111.472-20.849,111.472ZM1494.427,497.7A21.013,21.013,0,1,1,1504,500,21,21,0,0,1,1494.427,497.7Zm-326.852-50.2,71.85,47Zm99,39.807,44.855-87.608L1266.573,487.3ZM769.516,403.916l137.909,73.852Zm188.207,67.389,59.327-51.754-59.327,51.754Zm-383.085-2a21.022,21.022,0,0,1-15.467-17.616A21.285,21.285,0,0,1,559,449a20.975,20.975,0,1,1,15.638,20.309Zm764.878-78.395,145.968,78.169Zm181.77,76.158,65.427-45.145-65.427,45.145Zm-659.518-96.04,56.163,94.056ZM488.723,460.8l70.448-9.11-70.448,9.11Zm941.626-129.994,64.3,129.381ZM1140.428,454.7a21,21,0,0,1,9.088-39.691c.161,0,.322-.005.484-.005a21,21,0,1,1-9.572,39.7ZM337.419,378.734,444.254,450.7ZM600,442.569,731,400.432,600,442.569Zm-124.932-.18L518.428,357.7l-43.363,84.692ZM1041.6,412.9l87.857,18.724ZM536.977,357.99l34.046,72.02ZM1170,429.568,1301,387.431,1170,429.568ZM1017.05,419.552A14.5,14.5,0,0,1,1027.2,395l-4.073-76.034c-.372.02-.747.03-1.123.03a21,21,0,1,1,21-21c0,.45-.014.9-.042,1.341a21,21,0,0,1-19.834,19.629L1027.2,395c.1,0,.2,0,.3,0a14.5,14.5,0,1,1-10.45,24.552Zm19.23-106.156L1135.719,420.6Zm126,105.57,94.43-130.933-94.43,130.933Zm-14.8-91.972,2.032,88.011Zm477.349,80.339L1753.2,390.9l-128.364,16.438ZM870.995,359.438l142.6,45.924Zm910.42,33.153A14.507,14.507,0,0,1,1767.5,403a14.706,14.706,0,0,1-2.092-.149,14.488,14.488,0,1,1,16.006-10.259l39.085,10.464Zm-469.987,7.1A21.034,21.034,0,1,1,1321,402,21.058,21.058,0,0,1,1311.428,399.7Zm128.088-77.781,145.967,78.169ZM548.393,344.03l182.213,44.94Zm222.042,42,61.13-25.063-61.13,25.063ZM1608.8,269.6,1755.84,379.88ZM1776.99,377.536l43.51-55.475-43.51,55.475ZM706.361,274.674l37.279,99.652Zm1031.321-56,27.676,155.479ZM831.565,360.968A21.012,21.012,0,1,1,851,374,20.931,20.931,0,0,1,831.565,360.968Zm506.722,8.1,65.427-45.146-65.427,45.146ZM220.5,367h0Zm120.315-2.8,166.37-22.4-166.37,22.4Zm937.162-74.209,34.047,72.02ZM518.428,357.7a21,21,0,0,1,7.93-39.634l-8.716-111.126Q516.828,207,516,207a21,21,0,0,1-20.985-20.206l-202.053,7.64q.038.528.039,1.066a14.485,14.485,0,1,1-10.207-13.854L293.616,151.5l-10.822,30.146a14.511,14.511,0,0,1,10.168,12.788l202.053-7.64c-.009-.264-.014-.528-.014-.794a20.989,20.989,0,0,1,21-21,21.2,21.2,0,0,1,3.453.283l2.3-13.783-2.3,13.783a21.018,21.018,0,0,1,16.2,28.129l143.69,54.178a21.021,21.021,0,0,1,28.186-11.784L745,151.5l-37.469,84.306A21.021,21.021,0,0,1,719.84,252.4l174.32-21.79A21.288,21.288,0,0,1,894,228a21.009,21.009,0,0,1,29.9-19.025L950.79,151.5,923.9,208.975A21.058,21.058,0,0,1,935,221.568L1066,179.432a21,21,0,0,1,36.609-19.279l11.19-8.653-11.19,8.653a21.014,21.014,0,0,1,1.9,22.762l145.968,78.169a21.009,21.009,0,0,1,30.57-7.283l71.707-102.3-71.707,102.3a21.068,21.068,0,0,1,7.522,9.585l176.846-68.773a21,21,0,0,1,34.649-22.235l21.521-20.878-21.521,20.878A20.932,20.932,0,0,1,1506,187c0,.311-.007.619-.02.927l207.04,9.146a21,21,0,0,1,37.569-11.952l43.3-33.621-43.3,33.621a21.049,21.049,0,0,1,3.805,17.911l66.107,16.312-66.107-16.312A21,21,0,0,1,1713,198q0-.466.02-.927l-207.04-9.146a21.008,21.008,0,0,1-30.552,17.769L1430.573,293.3A21.014,21.014,0,1,1,1421,291a21.057,21.057,0,0,1,9.572,2.3l44.855-87.608a21.076,21.076,0,0,1-10-11.083l-176.846,68.773a21,21,0,1,1-38.092-2.3l-145.968-78.169A21.005,21.005,0,0,1,1066,179.432L935,221.568a21,21,0,1,1-40.837,9.037L719.84,252.4A21.262,21.262,0,0,1,720,255a21,21,0,1,1-40.655-7.411l-143.69-54.178a21.018,21.018,0,0,1-18.013,13.526l8.716,111.126Q527.172,318,528,318a21,21,0,1,1-9.572,39.7ZM281.583,209.671l33.434,136.923ZM871,346.568,1002,304.432,871,346.568ZM716.652,266.38l116.7,75.239ZM860.573,334.3,905.428,246.7,860.573,334.3Zm-313.72-4.565,133.294-65.479L546.853,329.739Zm-255.7-127.16L509.8,328.517ZM1126,306c0-.45.014-.9.042-1.341a21,21,0,1,1,21.442,22.335c-.161,0-.322.005-.484.005A21,21,0,0,1,1126,306Zm163.28-29.53,111.44,30.06ZM1441,305.569,1572,263.432,1441,305.569Zm-398.038-6.228,83.084,5.318Zm124.233.867,81.618-23.415-81.618,23.415Zm-72.434-108.114,43.485,94.814ZM932.576,239.5l71.849,47Zm99,39.807,44.855-87.608L1031.573,279.3ZM220.5,276.735l49.1-69.79ZM1250.572,151.5l15.227,98.743ZM1611.4,248.941l103.2-42.881-103.2,42.881ZM1502.575,198.5l71.85,47Zm-865.269-47,50.94,85.459Zm203.319,0,59.737,61.443Zm-599.275,0,27.761,32.95Zm1454.725,0,24.652,30.226Zm-1242.687,0L497.6,175.864Zm1013.589,0,8.515,16.771Zm-397.843,0,3.9,4.977Z" transform="translate(-218.793 -149.748)" fill="none" stroke="#707070" stroke-width="4"/>
</svg>
