<svg xmlns="http://www.w3.org/2000/svg" xmlns:xlink="http://www.w3.org/1999/xlink" width="1211" height="1617" viewBox="0 0 1211 1617">
  <defs>
    <linearGradient id="linear-gradient" x1="0.5" x2="0.5" y2="1" gradientUnits="objectBoundingBox">
      <stop offset="0" stop-color="#005ea3"/>
      <stop offset="1" stop-color="#673c18"/>
    </linearGradient>
  </defs>
  <path id="Union_15" data-name="Union 15" d="M137,1573a39.846,39.846,0,0,1,9.545-25.934l-28.162-24.048A40,40,0,1,1,78.1,1458.235l-19.51-73.652A40,40,0,1,1,48,1306c.167,0,.334,0,.5,0V1175c-.167,0-.333,0-.5,0a40,40,0,0,1,0-80c.167,0,.334,0,.5,0V984c-.167,0-.333,0-.5,0a40,40,0,0,1,0-80c.167,0,.334,0,.5,0V793c-.167,0-.333,0-.5,0a40,40,0,0,1-1.309-79.979l-4.428-99.084Q41.14,614,40,614a40,40,0,0,1,0-80q1.027,0,2.041.051L47,403.988A40,40,0,0,1,48,324c.167,0,.334,0,.5,0V245c-.167,0-.333,0-.5,0A40,40,0,1,1,67.75,170.208l33.69-61.765a40.005,40.005,0,1,1,57.871-42.875l58.613-11.979a40,40,0,1,1,69.634,17.223L321.364,99.28A40,40,0,0,1,391.9,122.17l62.286-5.264Q454,114.979,454,113a40.006,40.006,0,0,1,78.335-11.457l154.708-48.89a40,40,0,1,1,74.636,3.33L865.82,98.219a40.007,40.007,0,1,1,70.81,36.448l76.576,48.924a40,40,0,1,1,56.225,54.533l35.363,52.6a40.006,40.006,0,1,1,35.443,71.032l14.114,41.284A40,40,0,1,1,1167.5,481V553a40,40,0,1,1-24.271,72.17l-55.816,75.138a40.009,40.009,0,0,1-40.557,68.3l-31.5,68.341a40.005,40.005,0,1,1-51.412,57.033L897.761,933.2a40.007,40.007,0,1,1-73.691,29.034l-61.883,13.7A40,40,0,1,1,683,984q0-1.5.109-2.978l-129.3-11.135a40,40,0,0,1-71.714,20.25l-57.375,41.856A40,40,0,0,1,392.5,1095V1226a40,40,0,0,1,0,79.994V1377a40,40,0,1,1-22.636,73.319l-34.584,50.147a40,40,0,1,1-61.461,44.492l-58.286,17.27A40,40,0,1,1,137,1573Zm78.534-10.77,58.286-17.27A40.058,40.058,0,0,1,288.67,1500.5l-38.65-53.516a50.122,50.122,0,0,1-41.3,8.733l-20.877,78.764A40.076,40.076,0,0,1,215.533,1562.231Zm-68.988-15.164a40.065,40.065,0,0,1,41.3-12.58l20.877-78.764a50.047,50.047,0,0,1-29.415-19.668l-57.787,39.1a40.015,40.015,0,0,1-3.133,47.86ZM288.67,1500.5a40.017,40.017,0,0,1,46.61-.036l34.584-50.147A39.964,39.964,0,0,1,352,1417q0-.938.043-1.865l-82.152-4.8a49.938,49.938,0,0,1-19.871,36.659Zm-167.154-25.346,57.787-39.1a50.1,50.1,0,0,1-6.461-45.711l-87.21-30.751a40.094,40.094,0,0,1-27.043,24.991l19.51,73.652a40.066,40.066,0,0,1,43.417,16.923Zm230.527-60.024A40,40,0,0,1,392,1377c.167,0,.333,0,.5,0V1306c-.167,0-.332,0-.5,0a39.911,39.911,0,0,1-30.41-14.013l-102.173,84.248A49.782,49.782,0,0,1,270,1407q0,1.679-.109,3.33Zm-179.2-24.791a50.075,50.075,0,0,1,59.736-31.747l20.063-88.57a45.068,45.068,0,0,1-29.56-21.421L83.224,1327.029a40.113,40.113,0,0,1,2.408,32.564Zm86.576-14.108,102.173-84.248a40.072,40.072,0,0,1-7.927-37.437l-48.74-15a45.068,45.068,0,0,1-52.282,30.472l-20.063,88.57A50.045,50.045,0,0,1,259.417,1376.235ZM83.224,1327.029,223.081,1248.6a45.1,45.1,0,0,1-2.606-39.975L84.715,1150.9A40.01,40.01,0,0,1,48.5,1175V1306A39.993,39.993,0,0,1,83.224,1327.029Zm270.439-72.479A40.018,40.018,0,0,1,392,1226c.167,0,.333,0,.5,0V1095c-.167,0-.332,0-.5,0a39.819,39.819,0,0,1-23.648-7.736L289.79,1190.6a45.066,45.066,0,0,1,15.133,48.949Zm-133.188-45.92a45.111,45.111,0,0,1,29.1-25.891l-35.242-119.279A60.094,60.094,0,0,1,152.1,1045.8l-73.4,63.552a40.046,40.046,0,0,1,6.017,41.545ZM289.79,1190.6l78.562-103.339A40.068,40.068,0,0,1,353.11,1045.6l-97.994-24.624a60.119,60.119,0,0,1-40.787,42.482l35.242,119.279a45.093,45.093,0,0,1,40.219,7.865ZM78.7,1109.355l73.4-63.552a60.073,60.073,0,0,1-10.616-62.611L84.836,959.619A40.013,40.013,0,0,1,48.5,984V1095A39.919,39.919,0,0,1,78.7,1109.355ZM353.11,1045.6A40.019,40.019,0,0,1,392,1015c.167,0,.333,0,.5,0V944c-.167,0-.332,0-.5,0a39.993,39.993,0,0,1-35.133-20.862L250.487,978.784a60.235,60.235,0,0,1,4.629,42.194Zm71.615-13.61L482.1,990.136a40.041,40.041,0,0,1-3.866-42.066l-50.667-25.749A40,40,0,0,1,392.5,944V1015A39.955,39.955,0,0,1,424.725,1031.992Zm-283.238-48.8a60.075,60.075,0,0,1,76.377-33.465l32.231-89.854a40.119,40.119,0,0,1-21.548-17.539L83.127,924.851a40.091,40.091,0,0,1,1.709,34.768Zm541.622-2.171a39.871,39.871,0,0,1,11.606-25.306l-23.432-23.432a40.009,40.009,0,0,1-64.05-10.354l-56.889,27.342A39.851,39.851,0,0,1,554,966q0,1.966-.186,3.886Zm-432.623-2.238,106.381-55.645a40.046,40.046,0,0,1,1.289-40.47L296.679,843.59a40.055,40.055,0,0,1-46.584,16.282l-32.231,89.854A60.2,60.2,0,0,1,250.487,978.784Zm511.7-2.85,61.883-13.7a40.107,40.107,0,0,1,5.9-31.8L807,914.619a45.039,45.039,0,0,1-56.358,15.017l-9.3,18.807A40.059,40.059,0,0,1,762.187,975.934Zm-67.471-20.218a40.028,40.028,0,0,1,46.623-7.273l9.3-18.807a45.043,45.043,0,0,1-25.222-34.457l-42.568,5.363Q683,902.252,683,904a39.875,39.875,0,0,1-11.716,28.284Zm-144.37-6.443,56.889-27.342A40,40,0,0,1,671.948,876.4l73.6-75.3A40.011,40.011,0,0,1,787.5,734.708l41.884-113.086a40.009,40.009,0,0,1,9.271-77.388l-10.319-83.586a40.008,40.008,0,0,1-17.189-77.862L775.473,271.017a40.013,40.013,0,0,1-46.528-59.011l-59.062-36.739a40.013,40.013,0,0,1-72.472-31.842L532.323,124.5a40.012,40.012,0,0,1-63.689,19.432l-50.195,59.053A40,40,0,0,1,392.5,273V401a40,40,0,0,1,.885,79.973L396.592,624l.408,0a40,40,0,1,1,0,80h-.323l-3.334,160.024a40.015,40.015,0,0,1,34.224,58.3l50.667,25.749a40.017,40.017,0,0,1,72.111,1.2ZM897.761,933.2l66.176-39.215a40.019,40.019,0,0,1,12.994-54.99l-22.9-36.633a60.177,60.177,0,0,1-47.132,6.457L875.092,914.86A40.11,40.11,0,0,1,897.761,933.2Zm-67.789-2.769a40.059,40.059,0,0,1,45.119-15.568L906.9,808.816a59.968,59.968,0,0,1-27.257-16.337L804.1,859.634a45.011,45.011,0,0,1,2.9,54.985ZM83.127,924.851l145.42-82.517a40.114,40.114,0,0,1-3.741-32.252L86,765.534A40.021,40.021,0,0,1,48.5,793V904A39.994,39.994,0,0,1,83.127,924.851Zm599.726-24.309,42.568-5.363A45.037,45.037,0,0,1,770,844c.558,0,1.112.01,1.665.03L772.487,812a39.857,39.857,0,0,1-26.937-10.9l-73.6,75.3A39.854,39.854,0,0,1,682.853,900.542Zm-324.7-17.873A39.972,39.972,0,0,1,392,864c.449,0,.9.008,1.343.022L396.677,704a39.836,39.836,0,0,1-25.009-9.04l-82.262,97a40.012,40.012,0,0,1,7.272,51.636ZM804.1,859.634l75.549-67.155a59.83,59.83,0,0,1-15.808-31.423l-51.087,6.471A40.445,40.445,0,0,1,813,772a40,40,0,0,1-40,40q-.257,0-.513,0l-.821,32.034A44.9,44.9,0,0,1,804.1,859.634Zm172.833-20.642a40.063,40.063,0,0,1,38.418-2.043l31.5-68.341a40.059,40.059,0,0,1-23.33-30.112l-40.86,6.129A60.651,60.651,0,0,1,983,751a59.964,59.964,0,0,1-28.963,51.36Zm-752.126-28.91a40.113,40.113,0,0,1,21.248-24.325l-29.534-62.2a45.041,45.041,0,0,1-59.971-20.819L84.49,736.591A40.156,40.156,0,0,1,86,765.534Zm64.6-18.128,82.262-97a39.937,39.937,0,0,1-14.437-26.633L241.849,679.286Q242,681.123,242,683a45.005,45.005,0,0,1-25.48,40.557l29.534,62.2a40.039,40.039,0,0,1,43.353,6.2Zm523.346-24.426,51.087-6.471a60.1,60.1,0,0,1,33.055-64.095l-36.259-77.05a40.129,40.129,0,0,1-31.255,1.709L787.5,734.708A40.037,40.037,0,0,1,812.752,767.528Zm169.913-22.9,40.86-6.129a40.068,40.068,0,0,1,20.285-41.6l-31.857-57.6a45.1,45.1,0,0,1-39.4,2.2L948.4,696.628A60.05,60.05,0,0,1,982.665,744.625ZM84.49,736.591l72.058-33.853a45.055,45.055,0,0,1,3.412-45.3L72.789,596.917a39.957,39.957,0,0,1-30.526,17.02l4.428,99.084Q47.343,713,48,713A40.01,40.01,0,0,1,84.49,736.591Zm1002.922-36.281,55.816-75.138a39.947,39.947,0,0,1-16.207-30.844l-92.046,4.16c.016.5.025,1.006.025,1.511a44.985,44.985,0,0,1-23.047,39.291l31.857,57.6a40.032,40.032,0,0,1,43.6,3.415Zm-190.518-3.349a60.146,60.146,0,0,1,51.511-.334l24.145-55.136A45.011,45.011,0,0,1,945,600q0-2.241.215-4.43l-62.5-6.8a40.032,40.032,0,0,1-22.083,31.144ZM241.849,679.286l115.382-10.961A40.435,40.435,0,0,1,357,664a39.874,39.874,0,0,1,11.369-27.934l-95.438-93.151a60.113,60.113,0,0,1-53.066,17.232L205.6,638.821A45.023,45.023,0,0,1,241.849,679.286Zm-81.888-21.849a45.078,45.078,0,0,1,45.64-18.616l14.265-78.674a60.093,60.093,0,0,1-45.654-37.021L77.576,560.255a40.076,40.076,0,0,1-4.787,36.662Zm208.409-21.371A39.874,39.874,0,0,1,396.592,624l-3.207-143.026Q392.7,481,392,481a40.014,40.014,0,0,1-37.292-25.5L286.5,480.759a60.084,60.084,0,0,1-13.568,62.156Zm666.606-37.577,92.046-4.16Q1127,593.667,1127,593a40,40,0,0,1,40-40c.167,0,.333,0,.5,0V481c-.167,0-.332,0-.5,0a40,40,0,0,1-39.952-38.005l-54.293,6.033q.242,2.454.244,4.973a50.044,50.044,0,0,1-60.441,48.908l-12.053,53.325A45.021,45.021,0,0,1,1034.975,598.49Zm-89.76-2.919a45.046,45.046,0,0,1,55.29-39.338l12.053-53.325a50.025,50.025,0,0,1-29.682-19.069L875.834,561.147A39.822,39.822,0,0,1,883,584a40.4,40.4,0,0,1-.281,4.768Zm-69.382-34.423,107.042-77.308A49.774,49.774,0,0,1,973,454a50.363,50.363,0,0,1,.595-7.734L862.4,427.919a40.029,40.029,0,0,1-34.071,32.728l10.319,83.586A40.424,40.424,0,0,1,843,544,39.95,39.95,0,0,1,875.834,561.147Zm-798.258-.893,96.636-37.128A60.093,60.093,0,0,1,182,464.993L79.9,388.136A39.939,39.939,0,0,1,48,404q-.5,0-1-.012L42.041,534.051A40.027,40.027,0,0,1,77.576,560.255Zm208.924-79.5L354.708,455.5a40.049,40.049,0,0,1,8.66-42.429L299.2,350.437a45.086,45.086,0,0,1-40.586,12.782l-16.079,79.092A60.108,60.108,0,0,1,286.5,480.759ZM182,464.993a60.1,60.1,0,0,1,60.531-22.682l16.079-79.092a45.055,45.055,0,0,1-35.577-34.582L87.3,356.527a40.1,40.1,0,0,1-7.4,31.609Zm890.754-15.966,54.293-6.033Q1127,442,1127,441a40.015,40.015,0,0,1,27.352-37.959l-14.114-41.284a40.071,40.071,0,0,1-37.673-6.087L1054.781,415.4A49.924,49.924,0,0,1,1072.756,449.027Zm-99.161-2.762a50.057,50.057,0,0,1,26.242-36.588L966.2,345.972a60.042,60.042,0,0,1-67.774-7.87l-48.174,53.62a40.073,40.073,0,0,1,12.15,36.2Zm81.187-30.867,47.783-59.728A39.93,39.93,0,0,1,1087,324q0-1.9.174-3.754L996.99,304.022a60.078,60.078,0,0,1-30.787,41.95l33.633,63.706a50.04,50.04,0,0,1,54.945,5.721Zm-691.413-2.331A39.881,39.881,0,0,1,392,401c.167,0,.333,0,.5,0V273c-.167,0-.332,0-.5,0a39.952,39.952,0,0,1-32.558-16.756l-54.975,37.823a45.012,45.012,0,0,1-5.269,56.371Zm486.886-21.346,48.174-53.62a60.084,60.084,0,0,1-17.3-64.272l-80.382-27.56a40.106,40.106,0,0,1-25.273,24.747l35.671,111.769a40.066,40.066,0,0,1,39.109,8.936ZM87.3,356.527l135.731-27.89a45.078,45.078,0,0,1,19.54-47.437l-32.9-50.559a45.021,45.021,0,0,1-52.256-2.085L73.555,333.227A39.972,39.972,0,0,1,87.3,356.527Zm-13.748-23.3,83.859-104.671a44.946,44.946,0,0,1-17.2-31.09l-52.326,4.583Q88,203.511,88,205a40,40,0,0,1-39.5,40V324A39.832,39.832,0,0,1,73.555,333.227Zm1013.619-12.981a39.979,39.979,0,0,1,17.62-29.521l-35.363-52.6a40.011,40.011,0,0,1-53.109-7.452l-31.2,25.187A59.751,59.751,0,0,1,998,293a60.37,60.37,0,0,1-1.01,11.022ZM304.467,294.066l54.975-37.823a40.016,40.016,0,0,1,18.939-60.865l-12.208-32.962a40.049,40.049,0,0,1-50.978-21.726L226.93,176.63a45.054,45.054,0,0,1-17.26,54.01l32.9,50.559a45.019,45.019,0,0,1,61.893,12.867Zm576.661-20.237a60.1,60.1,0,0,1,45.806-39.811l-15.91-81.824a40.072,40.072,0,0,1-37.931-12.632l-79.268,67.943a40.066,40.066,0,0,1,6.921,38.763Zm104-17.972,31.2-25.187a40.017,40.017,0,0,1-3.116-47.081L936.63,134.666a40.039,40.039,0,0,1-25.606,17.529l15.91,81.824a60.106,60.106,0,0,1,58.19,21.84ZM728.946,212.006a40.038,40.038,0,0,1,26.712-18.334l-22.543-114.5a40.089,40.089,0,0,1-33.378-8.162l-39.716,51a40.016,40.016,0,0,1,9.863,53.254Zm64.879-4.5,79.268-67.943a40.052,40.052,0,0,1-7.273-41.345L761.679,55.984a40.068,40.068,0,0,1-28.564,23.193l22.543,114.5a40.07,40.07,0,0,1,38.167,13.835Zm-375.386-4.524,50.195-59.053a39.928,39.928,0,0,1-14.446-27.024L391.9,122.17q.1,1.4.1,2.83a40.014,40.014,0,0,1-25.827,37.416l12.208,32.962a40.058,40.058,0,0,1,40.058,7.6Zm-330.546-.934,52.326-4.583Q140,195.262,140,193a44.99,44.99,0,0,1,23.74-39.671l-24.508-45.246a40.065,40.065,0,0,1-37.792.361L67.75,170.208A40,40,0,0,1,87.893,202.049ZM226.93,176.63l88.264-35.94a40.05,40.05,0,0,1,6.169-41.41L287.558,70.812A40.035,40.035,0,0,1,240.1,81.265l-34.812,71.557A45.159,45.159,0,0,1,226.93,176.63Zm-63.19-23.3a45.082,45.082,0,0,1,41.549-.506L240.1,81.265a40.078,40.078,0,0,1-22.177-27.676L159.311,65.568a40.069,40.069,0,0,1-20.079,42.514Zm433.672-9.9a40.014,40.014,0,0,1,62.609-21.412l39.716-51a40.074,40.074,0,0,1-12.694-18.361l-154.708,48.89a40.252,40.252,0,0,1-.012,22.955Z" transform="translate(2 2)" stroke="rgba(54,54,54,0.49)" stroke-width="4" fill="url(#linear-gradient)"/>
</svg>
