<svg xmlns="http://www.w3.org/2000/svg" width="1193" height="1598" viewBox="0 0 1193 1598">
  <g id="Group_255" data-name="Group 255" transform="translate(-3446 -4312)">
    <g id="Ellipse_63" data-name="Ellipse 63" transform="translate(3515 4704)" fill="#416a74" stroke="rgba(65,106,116,0.73)" stroke-width="4">
      <circle cx="34.5" cy="34.5" r="34.5" stroke="none"/>
      <circle cx="34.5" cy="34.5" r="32.5" fill="none"/>
    </g>
    <g id="Ellipse_64" data-name="Ellipse 64" transform="translate(3584 4407)" fill="#416a74" stroke="rgba(65,106,116,0.73)" stroke-width="4">
      <circle cx="34.5" cy="34.5" r="34.5" stroke="none"/>
      <circle cx="34.5" cy="34.5" r="32.5" fill="none"/>
    </g>
    <g id="Ellipse_65" data-name="Ellipse 65" transform="translate(3584 4833)" fill="#416a74" stroke="rgba(65,106,116,0.73)" stroke-width="4">
      <circle cx="34.5" cy="34.5" r="34.5" stroke="none"/>
      <circle cx="34.5" cy="34.5" r="32.5" fill="none"/>
    </g>
    <g id="Ellipse_66" data-name="Ellipse 66" transform="translate(3584 4604)" fill="#416a74" stroke="rgba(65,106,116,0.73)" stroke-width="4">
      <circle cx="34.5" cy="34.5" r="34.5" stroke="none"/>
      <circle cx="34.5" cy="34.5" r="32.5" fill="none"/>
    </g>
    <g id="Ellipse_67" data-name="Ellipse 67" transform="translate(3515 5286)" fill="#416a74" stroke="rgba(65,106,116,0.73)" stroke-width="4">
      <circle cx="34.5" cy="34.5" r="34.5" stroke="none"/>
      <circle cx="34.5" cy="34.5" r="32.5" fill="none"/>
    </g>
    <g id="Ellipse_68" data-name="Ellipse 68" transform="translate(3446 5200)" fill="#416a74" stroke="rgba(65,106,116,0.73)" stroke-width="4">
      <circle cx="34.5" cy="34.5" r="34.5" stroke="none"/>
      <circle cx="34.5" cy="34.5" r="32.5" fill="none"/>
    </g>
    <g id="Ellipse_69" data-name="Ellipse 69" transform="translate(3653 4312)" fill="#416a74" stroke="rgba(65,106,116,0.73)" stroke-width="4">
      <circle cx="34.5" cy="34.5" r="34.5" stroke="none"/>
      <circle cx="34.5" cy="34.5" r="32.5" fill="none"/>
    </g>
    <g id="Ellipse_70" data-name="Ellipse 70" transform="translate(3722 5780)" fill="#416a74" stroke="rgba(65,106,116,0.73)" stroke-width="4">
      <circle cx="34.5" cy="34.5" r="34.5" stroke="none"/>
      <circle cx="34.5" cy="34.5" r="32.5" fill="none"/>
    </g>
    <g id="Ellipse_71" data-name="Ellipse 71" transform="translate(3515 5549)" fill="#416a74" stroke="rgba(65,106,116,0.73)" stroke-width="4">
      <circle cx="34.5" cy="34.5" r="34.5" stroke="none"/>
      <circle cx="34.5" cy="34.5" r="32.5" fill="none"/>
    </g>
    <g id="Ellipse_72" data-name="Ellipse 72" transform="translate(3584 5841)" fill="#416a74" stroke="rgba(65,106,116,0.73)" stroke-width="4">
      <circle cx="34.5" cy="34.5" r="34.5" stroke="none"/>
      <circle cx="34.5" cy="34.5" r="32.5" fill="none"/>
    </g>
    <g id="Ellipse_73" data-name="Ellipse 73" transform="translate(3653 5501)" fill="#416a74" stroke="rgba(65,106,116,0.73)" stroke-width="4">
      <circle cx="34.5" cy="34.5" r="34.5" stroke="none"/>
      <circle cx="34.5" cy="34.5" r="32.5" fill="none"/>
    </g>
    <g id="Ellipse_74" data-name="Ellipse 74" transform="translate(3446 4629)" fill="#416a74" stroke="rgba(65,106,116,0.73)" stroke-width="4">
      <circle cx="34.5" cy="34.5" r="34.5" stroke="none"/>
      <circle cx="34.5" cy="34.5" r="32.5" fill="none"/>
    </g>
    <g id="Ellipse_75" data-name="Ellipse 75" transform="translate(3446 4461)" fill="#416a74" stroke="rgba(65,106,116,0.73)" stroke-width="4">
      <circle cx="34.5" cy="34.5" r="34.5" stroke="none"/>
      <circle cx="34.5" cy="34.5" r="32.5" fill="none"/>
    </g>
    <g id="Ellipse_76" data-name="Ellipse 76" transform="translate(3515 4338)" fill="#416a74" stroke="rgba(65,106,116,0.73)" stroke-width="4">
      <circle cx="34.5" cy="34.5" r="34.5" stroke="none"/>
      <circle cx="34.5" cy="34.5" r="32.5" fill="none"/>
    </g>
    <g id="Ellipse_77" data-name="Ellipse 77" transform="translate(3446 5038)" fill="#416a74" stroke="rgba(65,106,116,0.73)" stroke-width="4">
      <circle cx="34.5" cy="34.5" r="34.5" stroke="none"/>
      <circle cx="34.5" cy="34.5" r="32.5" fill="none"/>
    </g>
    <g id="Ellipse_78" data-name="Ellipse 78" transform="translate(3446 4842)" fill="#416a74" stroke="rgba(65,106,116,0.73)" stroke-width="4">
      <circle cx="34.5" cy="34.5" r="34.5" stroke="none"/>
      <circle cx="34.5" cy="34.5" r="32.5" fill="none"/>
    </g>
    <g id="Ellipse_79" data-name="Ellipse 79" transform="translate(3515 4934)" fill="#416a74" stroke="rgba(65,106,116,0.73)" stroke-width="4">
      <circle cx="34.5" cy="34.5" r="34.5" stroke="none"/>
      <circle cx="34.5" cy="34.5" r="32.5" fill="none"/>
    </g>
    <g id="Ellipse_80" data-name="Ellipse 80" transform="translate(3446 5396)" fill="#416a74" stroke="rgba(65,106,116,0.73)" stroke-width="4">
      <circle cx="34.5" cy="34.5" r="34.5" stroke="none"/>
      <circle cx="34.5" cy="34.5" r="32.5" fill="none"/>
    </g>
    <g id="Ellipse_81" data-name="Ellipse 81" transform="translate(3584 5182)" fill="#416a74" stroke="rgba(65,106,116,0.73)" stroke-width="4">
      <circle cx="34.5" cy="34.5" r="34.5" stroke="none"/>
      <circle cx="34.5" cy="34.5" r="32.5" fill="none"/>
    </g>
    <g id="Ellipse_82" data-name="Ellipse 82" transform="translate(3446 5664)" fill="#416a74" stroke="rgba(65,106,116,0.73)" stroke-width="4">
      <circle cx="34.5" cy="34.5" r="34.5" stroke="none"/>
      <circle cx="34.5" cy="34.5" r="32.5" fill="none"/>
    </g>
    <g id="Ellipse_83" data-name="Ellipse 83" transform="translate(3584 5422)" fill="#416a74" stroke="rgba(65,106,116,0.73)" stroke-width="4">
      <circle cx="34.5" cy="34.5" r="34.5" stroke="none"/>
      <circle cx="34.5" cy="34.5" r="32.5" fill="none"/>
    </g>
    <g id="Ellipse_84" data-name="Ellipse 84" transform="translate(3653 5691)" fill="#416a74" stroke="rgba(65,106,116,0.73)" stroke-width="4">
      <circle cx="34.5" cy="34.5" r="34.5" stroke="none"/>
      <circle cx="34.5" cy="34.5" r="32.5" fill="none"/>
    </g>
    <g id="Ellipse_85" data-name="Ellipse 85" transform="translate(3515 5779)" fill="#416a74" stroke="rgba(65,106,116,0.73)" stroke-width="4">
      <circle cx="34.5" cy="34.5" r="34.5" stroke="none"/>
      <circle cx="34.5" cy="34.5" r="32.5" fill="none"/>
    </g>
    <g id="Ellipse_86" data-name="Ellipse 86" transform="translate(3653 4492)" fill="#416a74" stroke="rgba(65,106,116,0.73)" stroke-width="4">
      <circle cx="34.5" cy="34.5" r="34.5" stroke="none"/>
      <circle cx="34.5" cy="34.5" r="32.5" fill="none"/>
    </g>
    <g id="Ellipse_87" data-name="Ellipse 87" transform="translate(3722 4635)" fill="#416a74" stroke="rgba(65,106,116,0.73)" stroke-width="4">
      <circle cx="34.5" cy="34.5" r="34.5" stroke="none"/>
      <circle cx="34.5" cy="34.5" r="32.5" fill="none"/>
    </g>
    <g id="Ellipse_88" data-name="Ellipse 88" transform="translate(3653 4729)" fill="#416a74" stroke="rgba(65,106,116,0.73)" stroke-width="4">
      <circle cx="34.5" cy="34.5" r="34.5" stroke="none"/>
      <circle cx="34.5" cy="34.5" r="32.5" fill="none"/>
    </g>
    <g id="Ellipse_89" data-name="Ellipse 89" transform="translate(3653 5286)" fill="#416a74" stroke="rgba(65,106,116,0.73)" stroke-width="4">
      <circle cx="34.5" cy="34.5" r="34.5" stroke="none"/>
      <circle cx="34.5" cy="34.5" r="32.5" fill="none"/>
    </g>
    <g id="Ellipse_90" data-name="Ellipse 90" transform="translate(3653 4997)" fill="#416a74" stroke="rgba(65,106,116,0.73)" stroke-width="4">
      <circle cx="34.5" cy="34.5" r="34.5" stroke="none"/>
      <circle cx="34.5" cy="34.5" r="32.5" fill="none"/>
    </g>
    <g id="Ellipse_91" data-name="Ellipse 91" transform="translate(3722 4815)" fill="#416a74" stroke="rgba(65,106,116,0.73)" stroke-width="4">
      <circle cx="34.5" cy="34.5" r="34.5" stroke="none"/>
      <circle cx="34.5" cy="34.5" r="32.5" fill="none"/>
    </g>
    <g id="Ellipse_92" data-name="Ellipse 92" transform="translate(3722 4369)" fill="#416a74" stroke="rgba(65,106,116,0.73)" stroke-width="4">
      <circle cx="34.5" cy="34.5" r="34.5" stroke="none"/>
      <circle cx="34.5" cy="34.5" r="32.5" fill="none"/>
    </g>
    <g id="Ellipse_93" data-name="Ellipse 93" transform="translate(3722 5409)" fill="#416a74" stroke="rgba(65,106,116,0.73)" stroke-width="4">
      <circle cx="34.5" cy="34.5" r="34.5" stroke="none"/>
      <circle cx="34.5" cy="34.5" r="32.5" fill="none"/>
    </g>
    <g id="Ellipse_94" data-name="Ellipse 94" transform="translate(3722 5075)" fill="#416a74" stroke="rgba(65,106,116,0.73)" stroke-width="4">
      <circle cx="34.5" cy="34.5" r="34.5" stroke="none"/>
      <circle cx="34.5" cy="34.5" r="32.5" fill="none"/>
    </g>
    <g id="Ellipse_95" data-name="Ellipse 95" transform="translate(3791 4492)" fill="#416a74" stroke="rgba(65,106,116,0.73)" stroke-width="4">
      <circle cx="34.5" cy="34.5" r="34.5" stroke="none"/>
      <circle cx="34.5" cy="34.5" r="32.5" fill="none"/>
    </g>
    <g id="Ellipse_96" data-name="Ellipse 96" transform="translate(3791 4931)" fill="#416a74" stroke="rgba(65,106,116,0.73)" stroke-width="4">
      <circle cx="34.5" cy="34.5" r="34.5" stroke="none"/>
      <circle cx="34.5" cy="34.5" r="32.5" fill="none"/>
    </g>
    <g id="Ellipse_97" data-name="Ellipse 97" transform="translate(3791 4704)" fill="#416a74" stroke="rgba(65,106,116,0.73)" stroke-width="4">
      <circle cx="34.5" cy="34.5" r="34.5" stroke="none"/>
      <circle cx="34.5" cy="34.5" r="32.5" fill="none"/>
    </g>
    <g id="Ellipse_98" data-name="Ellipse 98" transform="translate(3791 5685)" fill="#416a74" stroke="rgba(65,106,116,0.73)" stroke-width="4">
      <circle cx="34.5" cy="34.5" r="34.5" stroke="none"/>
      <circle cx="34.5" cy="34.5" r="32.5" fill="none"/>
    </g>
    <g id="Ellipse_99" data-name="Ellipse 99" transform="translate(3791 5165)" fill="#416a74" stroke="rgba(65,106,116,0.73)" stroke-width="4">
      <circle cx="34.5" cy="34.5" r="34.5" stroke="none"/>
      <circle cx="34.5" cy="34.5" r="32.5" fill="none"/>
    </g>
    <g id="Ellipse_100" data-name="Ellipse 100" transform="translate(3791 5314)" fill="#416a74" stroke="rgba(65,106,116,0.73)" stroke-width="4">
      <circle cx="34.5" cy="34.5" r="34.5" stroke="none"/>
      <circle cx="34.5" cy="34.5" r="32.5" fill="none"/>
    </g>
    <g id="Ellipse_101" data-name="Ellipse 101" transform="translate(3791 5530)" fill="#416a74" stroke="rgba(65,106,116,0.73)" stroke-width="4">
      <circle cx="34.5" cy="34.5" r="34.5" stroke="none"/>
      <circle cx="34.5" cy="34.5" r="32.5" fill="none"/>
    </g>
    <g id="Ellipse_102" data-name="Ellipse 102" transform="translate(4294 4800)" fill="#416a74" stroke="rgba(65,106,116,0.73)" stroke-width="4">
      <circle cx="34.5" cy="34.5" r="34.5" stroke="none"/>
      <circle cx="34.5" cy="34.5" r="32.5" fill="none"/>
    </g>
    <g id="Ellipse_103" data-name="Ellipse 103" transform="translate(4363 4392)" fill="#416a74" stroke="rgba(65,106,116,0.73)" stroke-width="4">
      <circle cx="34.5" cy="34.5" r="34.5" stroke="none"/>
      <circle cx="34.5" cy="34.5" r="32.5" fill="none"/>
    </g>
    <g id="Ellipse_104" data-name="Ellipse 104" transform="translate(4363 4937)" fill="#416a74" stroke="rgba(65,106,116,0.73)" stroke-width="4">
      <circle cx="34.5" cy="34.5" r="34.5" stroke="none"/>
      <circle cx="34.5" cy="34.5" r="32.5" fill="none"/>
    </g>
    <g id="Ellipse_105" data-name="Ellipse 105" transform="translate(4363 4685)" fill="#416a74" stroke="rgba(65,106,116,0.73)" stroke-width="4">
      <circle cx="34.5" cy="34.5" r="34.5" stroke="none"/>
      <circle cx="34.5" cy="34.5" r="32.5" fill="none"/>
    </g>
    <g id="Ellipse_106" data-name="Ellipse 106" transform="translate(4294 5048)" fill="#416a74" stroke="rgba(65,106,116,0.73)" stroke-width="4">
      <circle cx="34.5" cy="34.5" r="34.5" stroke="none"/>
      <circle cx="34.5" cy="34.5" r="32.5" fill="none"/>
    </g>
    <g id="Ellipse_107" data-name="Ellipse 107" transform="translate(4225 4345)" fill="#416a74" stroke="rgba(65,106,116,0.73)" stroke-width="4">
      <circle cx="34.5" cy="34.5" r="34.5" stroke="none"/>
      <circle cx="34.5" cy="34.5" r="32.5" fill="none"/>
    </g>
    <g id="Ellipse_108" data-name="Ellipse 108" transform="translate(4225 4687)" fill="#416a74" stroke="rgba(65,106,116,0.73)" stroke-width="4">
      <circle cx="34.5" cy="34.5" r="34.5" stroke="none"/>
      <circle cx="34.5" cy="34.5" r="32.5" fill="none"/>
    </g>
    <g id="Ellipse_109" data-name="Ellipse 109" transform="translate(4294 4574)" fill="#416a74" stroke="rgba(65,106,116,0.73)" stroke-width="4">
      <circle cx="34.5" cy="34.5" r="34.5" stroke="none"/>
      <circle cx="34.5" cy="34.5" r="32.5" fill="none"/>
    </g>
    <g id="Ellipse_110" data-name="Ellipse 110" transform="translate(4225 4877)" fill="#416a74" stroke="rgba(65,106,116,0.73)" stroke-width="4">
      <circle cx="34.5" cy="34.5" r="34.5" stroke="none"/>
      <circle cx="34.5" cy="34.5" r="32.5" fill="none"/>
    </g>
    <g id="Ellipse_111" data-name="Ellipse 111" transform="translate(4456 4499)" fill="#416a74" stroke="rgba(65,106,116,0.73)" stroke-width="4">
      <circle cx="34.5" cy="34.5" r="34.5" stroke="none"/>
      <circle cx="34.5" cy="34.5" r="32.5" fill="none"/>
    </g>
    <g id="Ellipse_112" data-name="Ellipse 112" transform="translate(4501 4612)" fill="#416a74" stroke="rgba(65,106,116,0.73)" stroke-width="4">
      <circle cx="34.5" cy="34.5" r="34.5" stroke="none"/>
      <circle cx="34.5" cy="34.5" r="32.5" fill="none"/>
    </g>
    <g id="Ellipse_113" data-name="Ellipse 113" transform="translate(4432 5076)" fill="#416a74" stroke="rgba(65,106,116,0.73)" stroke-width="4">
      <circle cx="34.5" cy="34.5" r="34.5" stroke="none"/>
      <circle cx="34.5" cy="34.5" r="32.5" fill="none"/>
    </g>
    <g id="Ellipse_114" data-name="Ellipse 114" transform="translate(4156 4484)" fill="#416a74" stroke="rgba(65,106,116,0.73)" stroke-width="4">
      <circle cx="34.5" cy="34.5" r="34.5" stroke="none"/>
      <circle cx="34.5" cy="34.5" r="32.5" fill="none"/>
    </g>
    <g id="Ellipse_115" data-name="Ellipse 115" transform="translate(4225 5223)" fill="#416a74" stroke="rgba(65,106,116,0.73)" stroke-width="4">
      <circle cx="34.5" cy="34.5" r="34.5" stroke="none"/>
      <circle cx="34.5" cy="34.5" r="32.5" fill="none"/>
    </g>
    <g id="Ellipse_116" data-name="Ellipse 116" transform="translate(4087 4312)" fill="#416a74" stroke="rgba(65,106,116,0.73)" stroke-width="4">
      <circle cx="34.5" cy="34.5" r="34.5" stroke="none"/>
      <circle cx="34.5" cy="34.5" r="32.5" fill="none"/>
    </g>
    <g id="Ellipse_117" data-name="Ellipse 117" transform="translate(4570 4862)" fill="#416a74" stroke="rgba(65,106,116,0.73)" stroke-width="4">
      <circle cx="34.5" cy="34.5" r="34.5" stroke="none"/>
      <circle cx="34.5" cy="34.5" r="32.5" fill="none"/>
    </g>
    <g id="Ellipse_118" data-name="Ellipse 118" transform="translate(4570 4704)" fill="#416a74" stroke="rgba(65,106,116,0.73)" stroke-width="4">
      <circle cx="34.5" cy="34.5" r="34.5" stroke="none"/>
      <circle cx="34.5" cy="34.5" r="32.5" fill="none"/>
    </g>
    <g id="Ellipse_119" data-name="Ellipse 119" transform="translate(4363 5166)" fill="#416a74" stroke="rgba(65,106,116,0.73)" stroke-width="4">
      <circle cx="34.5" cy="34.5" r="34.5" stroke="none"/>
      <circle cx="34.5" cy="34.5" r="32.5" fill="none"/>
    </g>
    <g id="Ellipse_120" data-name="Ellipse 120" transform="translate(4501 4937)" fill="#416a74" stroke="rgba(65,106,116,0.73)" stroke-width="4">
      <circle cx="34.5" cy="34.5" r="34.5" stroke="none"/>
      <circle cx="34.5" cy="34.5" r="32.5" fill="none"/>
    </g>
    <g id="Ellipse_121" data-name="Ellipse 121" transform="translate(4432 4778)" fill="#416a74" stroke="rgba(65,106,116,0.73)" stroke-width="4">
      <circle cx="34.5" cy="34.5" r="34.5" stroke="none"/>
      <circle cx="34.5" cy="34.5" r="32.5" fill="none"/>
    </g>
    <g id="Ellipse_122" data-name="Ellipse 122" transform="translate(4156 5080)" fill="#416a74" stroke="rgba(65,106,116,0.73)" stroke-width="4">
      <circle cx="34.5" cy="34.5" r="34.5" stroke="none"/>
      <circle cx="34.5" cy="34.5" r="32.5" fill="none"/>
    </g>
    <g id="Ellipse_123" data-name="Ellipse 123" transform="translate(4087 5245)" fill="#416a74" stroke="rgba(65,106,116,0.73)" stroke-width="4">
      <circle cx="34.5" cy="34.5" r="34.5" stroke="none"/>
      <circle cx="34.5" cy="34.5" r="32.5" fill="none"/>
    </g>
    <g id="Ellipse_124" data-name="Ellipse 124" transform="translate(4018 4358)" fill="#416a74" stroke="rgba(65,106,116,0.73)" stroke-width="4">
      <circle cx="34.5" cy="34.5" r="34.5" stroke="none"/>
      <circle cx="34.5" cy="34.5" r="32.5" fill="none"/>
    </g>
    <g id="Ellipse_125" data-name="Ellipse 125" transform="translate(4018 5200)" fill="#416a74" stroke="rgba(65,106,116,0.73)" stroke-width="4">
      <circle cx="34.5" cy="34.5" r="34.5" stroke="none"/>
      <circle cx="34.5" cy="34.5" r="32.5" fill="none"/>
    </g>
    <line id="Line_20" data-name="Line 20" x2="69" y2="69" transform="translate(3549.5 4372.5)" fill="none" stroke="rgba(65,106,116,0.73)" stroke-width="4"/>
    <line id="Line_21" data-name="Line 21" x1="69" y2="95" transform="translate(3618.5 4346.5)" fill="none" stroke="rgba(65,106,116,0.73)" stroke-width="4"/>
    <line id="Line_22" data-name="Line 22" x1="69" y1="57" transform="translate(3687.5 4346.5)" fill="none" stroke="rgba(65,106,116,0.73)" stroke-width="4"/>
    <line id="Line_23" data-name="Line 23" x1="69" y1="85" transform="translate(3618.5 4441.5)" fill="none" stroke="rgba(65,106,116,0.73)" stroke-width="4"/>
    <line id="Line_24" data-name="Line 24" x1="69" y2="123" transform="translate(3687.5 4403.5)" fill="none" stroke="rgba(65,106,116,0.73)" stroke-width="4"/>
    <line id="Line_25" data-name="Line 25" x1="138" transform="translate(3687.5 4526.5)" fill="none" stroke="rgba(65,106,116,0.73)" stroke-width="4"/>
    <line id="Line_26" data-name="Line 26" x2="69" y2="123" transform="translate(3756.5 4403.5)" fill="none" stroke="rgba(65,106,116,0.73)" stroke-width="4"/>
    <line id="Line_27" data-name="Line 27" y1="26" x2="138" transform="translate(3549.5 4346.5)" fill="none" stroke="rgba(65,106,116,0.73)" stroke-width="4"/>
    <line id="Line_28" data-name="Line 28" y1="123" x2="69" transform="translate(3480.5 4372.5)" fill="none" stroke="rgba(65,106,116,0.73)" stroke-width="4"/>
    <line id="Line_29" data-name="Line 29" x1="138" y2="54" transform="translate(3480.5 4441.5)" fill="none" stroke="rgba(65,106,116,0.73)" stroke-width="4"/>
    <line id="Line_30" data-name="Line 30" x2="138" y2="143" transform="translate(3480.5 4495.5)" fill="none" stroke="rgba(65,106,116,0.73)" stroke-width="4"/>
    <line id="Line_31" data-name="Line 31" y1="112" x2="69" transform="translate(3618.5 4526.5)" fill="none" stroke="rgba(65,106,116,0.73)" stroke-width="4"/>
    <line id="Line_32" data-name="Line 32" x2="138" y2="31" transform="translate(3618.5 4638.5)" fill="none" stroke="rgba(65,106,116,0.73)" stroke-width="4"/>
    <line id="Line_33" data-name="Line 33" x1="69" y2="143" transform="translate(3756.5 4526.5)" fill="none" stroke="rgba(65,106,116,0.73)" stroke-width="4"/>
    <line id="Line_34" data-name="Line 34" x1="69" y1="69" transform="translate(3756.5 4669.5)" fill="none" stroke="rgba(65,106,116,0.73)" stroke-width="4"/>
    <line id="Line_35" data-name="Line 35" y1="212" transform="translate(3825.5 4526.5)" fill="none" stroke="rgba(65,106,116,0.73)" stroke-width="4"/>
    <line id="Line_36" data-name="Line 36" y1="94" x2="69" transform="translate(3687.5 4669.5)" fill="none" stroke="rgba(65,106,116,0.73)" stroke-width="4"/>
    <line id="Line_37" data-name="Line 37" y1="25" x2="138" transform="translate(3687.5 4738.5)" fill="none" stroke="rgba(65,106,116,0.73)" stroke-width="4"/>
    <line id="Line_38" data-name="Line 38" y1="111" x2="69" transform="translate(3756.5 4738.5)" fill="none" stroke="rgba(65,106,116,0.73)" stroke-width="4"/>
    <line id="Line_39" data-name="Line 39" x1="69" y1="86" transform="translate(3687.5 4763.5)" fill="none" stroke="rgba(65,106,116,0.73)" stroke-width="4"/>
    <line id="Line_40" data-name="Line 40" x1="69" y2="104" transform="translate(3618.5 4763.5)" fill="none" stroke="rgba(65,106,116,0.73)" stroke-width="4"/>
    <line id="Line_41" data-name="Line 41" y1="100" x2="69" transform="translate(3549.5 4638.5)" fill="none" stroke="rgba(65,106,116,0.73)" stroke-width="4"/>
    <line id="Line_42" data-name="Line 42" y1="168" transform="translate(3480.5 4495.5)" fill="none" stroke="rgba(65,106,116,0.73)" stroke-width="4"/>
    <line id="Line_43" data-name="Line 43" y1="25" x2="138" transform="translate(3480.5 4638.5)" fill="none" stroke="rgba(65,106,116,0.73)" stroke-width="4"/>
    <line id="Line_44" data-name="Line 44" x1="69" y1="75" transform="translate(3480.5 4663.5)" fill="none" stroke="rgba(65,106,116,0.73)" stroke-width="4"/>
    <line id="Line_45" data-name="Line 45" y2="207" transform="translate(3480.5 4669.5)" fill="none" stroke="rgba(65,106,116,0.73)" stroke-width="4"/>
    <line id="Line_46" data-name="Line 46" y1="9" x2="138" transform="translate(3480.5 4867.5)" fill="none" stroke="rgba(65,106,116,0.73)" stroke-width="4"/>
    <line id="Line_47" data-name="Line 47" y1="101" x2="69" transform="translate(3549.5 4867.5)" fill="none" stroke="rgba(65,106,116,0.73)" stroke-width="4"/>
    <line id="Line_48" data-name="Line 48" y1="227" transform="translate(3825.5 4738.5)" fill="none" stroke="rgba(65,106,116,0.73)" stroke-width="4"/>
    <line id="Line_49" data-name="Line 49" x1="69" y1="116" transform="translate(3756.5 4849.5)" fill="none" stroke="rgba(65,106,116,0.73)" stroke-width="4"/>
    <line id="Line_50" data-name="Line 50" y1="18" x2="138" transform="translate(3618.5 4849.5)" fill="none" stroke="rgba(65,106,116,0.73)" stroke-width="4"/>
    <line id="Line_51" data-name="Line 51" x1="69" y1="129" transform="translate(3549.5 4738.5)" fill="none" stroke="rgba(65,106,116,0.73)" stroke-width="4"/>
    <line id="Line_52" data-name="Line 52" y1="196" transform="translate(3480.5 4876.5)" fill="none" stroke="rgba(65,106,116,0.73)" stroke-width="4"/>
    <line id="Line_53" data-name="Line 53" y1="104" x2="69" transform="translate(3480.5 4968.5)" fill="none" stroke="rgba(65,106,116,0.73)" stroke-width="4"/>
    <line id="Line_54" data-name="Line 54" x2="138" y2="63" transform="translate(3549.5 4968.5)" fill="none" stroke="rgba(65,106,116,0.73)" stroke-width="4"/>
    <line id="Line_55" data-name="Line 55" x1="69" y1="164" transform="translate(3618.5 4867.5)" fill="none" stroke="rgba(65,106,116,0.73)" stroke-width="4"/>
    <line id="Line_56" data-name="Line 56" y1="182" x2="69" transform="translate(3687.5 4849.5)" fill="none" stroke="rgba(65,106,116,0.73)" stroke-width="4"/>
    <line id="Line_57" data-name="Line 57" x1="138" y1="144" transform="translate(3480.5 5072.5)" fill="none" stroke="rgba(65,106,116,0.73)" stroke-width="4"/>
    <line id="Line_58" data-name="Line 58" y1="107" x2="139" transform="translate(3618.5 5109.5)" fill="none" stroke="rgba(65,106,116,0.73)" stroke-width="4"/>
    <line id="Line_59" data-name="Line 59" x1="69" y1="78" transform="translate(3687.5 5031.5)" fill="none" stroke="rgba(65,106,116,0.73)" stroke-width="4"/>
    <line id="Line_60" data-name="Line 60" x1="69" y2="185" transform="translate(3618.5 5031.5)" fill="none" stroke="rgba(65,106,116,0.73)" stroke-width="4"/>
    <line id="Line_61" data-name="Line 61" y2="162" transform="translate(3480.5 5072.5)" fill="none" stroke="rgba(65,106,116,0.73)" stroke-width="4"/>
    <line id="Line_62" data-name="Line 62" x2="69" y2="86" transform="translate(3480.5 5234.5)" fill="none" stroke="rgba(65,106,116,0.73)" stroke-width="4"/>
    <line id="Line_63" data-name="Line 63" y1="104" x2="69" transform="translate(3549.5 5216.5)" fill="none" stroke="rgba(65,106,116,0.73)" stroke-width="4"/>
    <line id="Line_64" data-name="Line 64" x2="138" transform="translate(3549.5 5320.5)" fill="none" stroke="rgba(65,106,116,0.73)" stroke-width="4"/>
    <line id="Line_65" data-name="Line 65" y1="120" x2="138" transform="translate(3687.5 5200.5)" fill="none" stroke="rgba(65,106,116,0.73)" stroke-width="4"/>
    <line id="Line_66" data-name="Line 66" x1="68" y2="145" transform="translate(3757.5 4965.5)" fill="none" stroke="rgba(65,106,116,0.73)" stroke-width="4"/>
    <line id="Line_67" data-name="Line 67" y1="66" x2="138" transform="translate(3687.5 4965.5)" fill="none" stroke="rgba(65,106,116,0.73)" stroke-width="4"/>
    <line id="Line_68" data-name="Line 68" x1="2" y1="149" transform="translate(3825.5 5199.5)" fill="none" stroke="rgba(65,106,116,0.73)" stroke-width="4"/>
    <line id="Line_69" data-name="Line 69" x2="140" y2="28" transform="translate(3687.5 5320.5)" fill="none" stroke="rgba(65,106,116,0.73)" stroke-width="4"/>
    <line id="Line_70" data-name="Line 70" x2="70" y2="61" transform="translate(3549.5 5814.5)" fill="none" stroke="rgba(65,106,116,0.73)" stroke-width="4"/>
    <line id="Line_71" data-name="Line 71" y1="150" x2="69" transform="translate(3619.5 5725.5)" fill="none" stroke="rgba(65,106,116,0.73)" stroke-width="4"/>
    <line id="Line_72" data-name="Line 72" x2="68" y2="89" transform="translate(3688.5 5725.5)" fill="none" stroke="rgba(65,106,116,0.73)" stroke-width="4"/>
    <line id="Line_73" data-name="Line 73" y1="94" x2="68" transform="translate(3757.5 5719.5)" fill="none" stroke="rgba(65,106,116,0.73)" stroke-width="4"/>
    <line id="Line_74" data-name="Line 74" x1="138" y2="6" transform="translate(3687.5 5719.5)" fill="none" stroke="rgba(65,106,116,0.73)" stroke-width="4"/>
    <line id="Line_75" data-name="Line 75" y1="161" x2="137" transform="translate(3688.5 5564.5)" fill="none" stroke="rgba(65,106,116,0.73)" stroke-width="4"/>
    <line id="Line_76" data-name="Line 76" y2="155" transform="translate(3825.5 5564.5)" fill="none" stroke="rgba(65,106,116,0.73)" stroke-width="4"/>
    <line id="Line_77" data-name="Line 77" y1="190" transform="translate(3688.5 5535.5)" fill="none" stroke="rgba(65,106,116,0.73)" stroke-width="4"/>
    <line id="Line_78" data-name="Line 78" x1="139" y2="48" transform="translate(3549.5 5535.5)" fill="none" stroke="rgba(65,106,116,0.73)" stroke-width="4"/>
    <line id="Line_79" data-name="Line 79" y1="127" x2="69" transform="translate(3549.5 5456.5)" fill="none" stroke="rgba(65,106,116,0.73)" stroke-width="4"/>
    <line id="Line_80" data-name="Line 80" x2="70" y2="79" transform="translate(3618.5 5456.5)" fill="none" stroke="rgba(65,106,116,0.73)" stroke-width="4"/>
    <line id="Line_81" data-name="Line 81" y1="92" x2="68" transform="translate(3688.5 5443.5)" fill="none" stroke="rgba(65,106,116,0.73)" stroke-width="4"/>
    <line id="Line_82" data-name="Line 82" y1="13" x2="138" transform="translate(3618.5 5443.5)" fill="none" stroke="rgba(65,106,116,0.73)" stroke-width="4"/>
    <line id="Line_83" data-name="Line 83" x1="69" y1="121" transform="translate(3756.5 5443.5)" fill="none" stroke="rgba(65,106,116,0.73)" stroke-width="4"/>
    <line id="Line_84" data-name="Line 84" y1="95" x2="70" transform="translate(3756.5 5348.5)" fill="none" stroke="rgba(65,106,116,0.73)" stroke-width="4"/>
    <line id="Line_85" data-name="Line 85" x1="2" y2="216" transform="translate(3825.5 5348.5)" fill="none" stroke="rgba(65,106,116,0.73)" stroke-width="4"/>
    <line id="Line_86" data-name="Line 86" x1="69" y1="153" transform="translate(3480.5 5430.5)" fill="none" stroke="rgba(65,106,116,0.73)" stroke-width="4"/>
    <line id="Line_87" data-name="Line 87" x2="138" y2="26" transform="translate(3480.5 5430.5)" fill="none" stroke="rgba(65,106,116,0.73)" stroke-width="4"/>
    <line id="Line_88" data-name="Line 88" y1="110" x2="69" transform="translate(3480.5 5320.5)" fill="none" stroke="rgba(65,106,116,0.73)" stroke-width="4"/>
    <line id="Line_89" data-name="Line 89" x1="69" y1="136" transform="translate(3549.5 5320.5)" fill="none" stroke="rgba(65,106,116,0.73)" stroke-width="4"/>
    <line id="Line_90" data-name="Line 90" x1="69" y2="115" transform="translate(3480.5 5583.5)" fill="none" stroke="rgba(65,106,116,0.73)" stroke-width="4"/>
    <line id="Line_91" data-name="Line 91" x2="69" y2="115" transform="translate(3480.5 5698.5)" fill="none" stroke="rgba(65,106,116,0.73)" stroke-width="4"/>
    <line id="Line_92" data-name="Line 92" y1="88" x2="138" transform="translate(3549.5 5725.5)" fill="none" stroke="rgba(65,106,116,0.73)" stroke-width="4"/>
    <line id="Line_93" data-name="Line 93" x2="208" y2="27" transform="translate(3480.5 5698.5)" fill="none" stroke="rgba(65,106,116,0.73)" stroke-width="4"/>
    <line id="Line_94" data-name="Line 94" y1="136" x2="70" transform="translate(3618.5 5320.5)" fill="none" stroke="rgba(65,106,116,0.73)" stroke-width="4"/>
    <line id="Line_95" data-name="Line 95" x1="68" y1="123" transform="translate(3688.5 5320.5)" fill="none" stroke="rgba(65,106,116,0.73)" stroke-width="4"/>
    <line id="Line_96" data-name="Line 96" x2="70" y2="104" transform="translate(3618.5 5216.5)" fill="none" stroke="rgba(65,106,116,0.73)" stroke-width="4"/>
    <line id="Line_97" data-name="Line 97" y1="18" x2="138" transform="translate(3480.5 5216.5)" fill="none" stroke="rgba(65,106,116,0.73)" stroke-width="4"/>
    <line id="Line_98" data-name="Line 98" y1="17" x2="207" transform="translate(3618.5 5199.5)" fill="none" stroke="rgba(65,106,116,0.73)" stroke-width="4"/>
    <line id="Line_99" data-name="Line 99" y1="41" x2="207" transform="translate(3480.5 5031.5)" fill="none" stroke="rgba(65,106,116,0.73)" stroke-width="4"/>
    <line id="Line_100" data-name="Line 100" x1="69" y1="92" transform="translate(3480.5 4876.5)" fill="none" stroke="rgba(65,106,116,0.73)" stroke-width="4"/>
    <line id="Line_101" data-name="Line 101" y1="138" x2="69" transform="translate(3480.5 4738.5)" fill="none" stroke="rgba(65,106,116,0.73)" stroke-width="4"/>
    <line id="Line_102" data-name="Line 102" y2="234" transform="translate(3825.5 4965.5)" fill="none" stroke="rgba(65,106,116,0.73)" stroke-width="4"/>
    <line id="Line_103" data-name="Line 103" x2="68" y2="90" transform="translate(3757.5 5110.5)" fill="none" stroke="rgba(65,106,116,0.73)" stroke-width="4"/>
    <line id="Line_104" data-name="Line 104" y1="196" transform="translate(3480.5 5234.5)" fill="none" stroke="rgba(65,106,116,0.73)" stroke-width="4"/>
    <line id="Line_105" data-name="Line 105" y1="268" transform="translate(3480.5 5430.5)" fill="none" stroke="rgba(65,106,116,0.73)" stroke-width="4"/>
    <line id="Line_106" data-name="Line 106" x1="138" y2="62" transform="translate(3619.5 5813.5)" fill="none" stroke="rgba(65,106,116,0.73)" stroke-width="4"/>
    <line id="Line_107" data-name="Line 107" x1="69" y2="49" transform="translate(4052.5 4345.5)" fill="none" stroke="rgba(65,106,116,0.73)" stroke-width="4"/>
    <line id="Line_108" data-name="Line 108" x1="207" y2="15" transform="translate(4052.5 4379.5)" fill="none" stroke="rgba(65,106,116,0.73)" stroke-width="4"/>
    <line id="Line_109" data-name="Line 109" x1="138" y1="124" transform="translate(4052.5 4394.5)" fill="none" stroke="rgba(65,106,116,0.73)" stroke-width="4"/>
    <line id="Line_110" data-name="Line 110" y1="139" x2="69" transform="translate(4190.5 4379.5)" fill="none" stroke="rgba(65,106,116,0.73)" stroke-width="4"/>
    <line id="Line_111" data-name="Line 111" x2="138" y2="33" transform="translate(4121.5 4346.5)" fill="none" stroke="rgba(65,106,116,0.73)" stroke-width="4"/>
    <line id="Line_112" data-name="Line 112" x1="138" y1="47" transform="translate(4259.5 4379.5)" fill="none" stroke="rgba(65,106,116,0.73)" stroke-width="4"/>
    <line id="Line_113" data-name="Line 113" x1="207" y2="92" transform="translate(4190.5 4426.5)" fill="none" stroke="rgba(65,106,116,0.73)" stroke-width="4"/>
    <line id="Line_114" data-name="Line 114" x1="69" y2="182" transform="translate(4328.5 4426.5)" fill="none" stroke="rgba(65,106,116,0.73)" stroke-width="4"/>
    <line id="Line_115" data-name="Line 115" x2="138" y2="90" transform="translate(4190.5 4518.5)" fill="none" stroke="rgba(65,106,116,0.73)" stroke-width="4"/>
    <line id="Line_116" data-name="Line 116" x2="69" y2="203" transform="translate(4190.5 4518.5)" fill="none" stroke="rgba(65,106,116,0.73)" stroke-width="4"/>
    <line id="Line_117" data-name="Line 117" x1="69" y2="113" transform="translate(4259.5 4608.5)" fill="none" stroke="rgba(65,106,116,0.73)" stroke-width="4"/>
    <line id="Line_118" data-name="Line 118" x1="138" y2="2" transform="translate(4259.5 4719.5)" fill="none" stroke="rgba(65,106,116,0.73)" stroke-width="4"/>
    <line id="Line_119" data-name="Line 119" x1="69" y1="113" transform="translate(4259.5 4721.5)" fill="none" stroke="rgba(65,106,116,0.73)" stroke-width="4"/>
    <line id="Line_120" data-name="Line 120" y1="190" transform="translate(4259.5 4721.5)" fill="none" stroke="rgba(65,106,116,0.73)" stroke-width="4"/>
    <line id="Line_121" data-name="Line 121" y1="77" x2="69" transform="translate(4259.5 4834.5)" fill="none" stroke="rgba(65,106,116,0.73)" stroke-width="4"/>
    <line id="Line_122" data-name="Line 122" x2="138" y2="60" transform="translate(4259.5 4911.5)" fill="none" stroke="rgba(65,106,116,0.73)" stroke-width="4"/>
    <line id="Line_123" data-name="Line 123" x2="69" y2="137" transform="translate(4328.5 4834.5)" fill="none" stroke="rgba(65,106,116,0.73)" stroke-width="4"/>
    <line id="Line_124" data-name="Line 124" x1="69" y2="159" transform="translate(4397.5 4812.5)" fill="none" stroke="rgba(65,106,116,0.73)" stroke-width="4"/>
    <line id="Line_125" data-name="Line 125" x1="138" transform="translate(4397.5 4971.5)" fill="none" stroke="rgba(65,106,116,0.73)" stroke-width="4"/>
    <line id="Line_126" data-name="Line 126" x1="69" y1="155" transform="translate(4466.5 4816.5)" fill="none" stroke="rgba(65,106,116,0.73)" stroke-width="4"/>
    <line id="Line_127" data-name="Line 127" y1="18" x2="138" transform="translate(4328.5 4816.5)" fill="none" stroke="rgba(65,106,116,0.73)" stroke-width="4"/>
    <line id="Line_128" data-name="Line 128" x2="69" y2="97" transform="translate(4397.5 4719.5)" fill="none" stroke="rgba(65,106,116,0.73)" stroke-width="4"/>
    <line id="Line_129" data-name="Line 129" x1="138" y2="78" transform="translate(4466.5 4738.5)" fill="none" stroke="rgba(65,106,116,0.73)" stroke-width="4"/>
    <line id="Line_130" data-name="Line 130" x1="69" y1="92" transform="translate(4535.5 4646.5)" fill="none" stroke="rgba(65,106,116,0.73)" stroke-width="4"/>
    <line id="Line_131" data-name="Line 131" y1="73" x2="138" transform="translate(4397.5 4646.5)" fill="none" stroke="rgba(65,106,116,0.73)" stroke-width="4"/>
    <line id="Line_132" data-name="Line 132" x1="69" y1="111" transform="translate(4328.5 4608.5)" fill="none" stroke="rgba(65,106,116,0.73)" stroke-width="4"/>
    <line id="Line_133" data-name="Line 133" x1="162" y2="75" transform="translate(4328.5 4533.5)" fill="none" stroke="rgba(65,106,116,0.73)" stroke-width="4"/>
    <line id="Line_134" data-name="Line 134" x2="45" y2="113" transform="translate(4490.5 4533.5)" fill="none" stroke="rgba(65,106,116,0.73)" stroke-width="4"/>
    <line id="Line_135" data-name="Line 135" x1="93" y1="106" transform="translate(4397.5 4427.5)" fill="none" stroke="rgba(65,106,116,0.73)" stroke-width="4"/>
    <line id="Line_136" data-name="Line 136" y1="170" x2="69" transform="translate(4466.5 4646.5)" fill="none" stroke="rgba(65,106,116,0.73)" stroke-width="4"/>
    <line id="Line_137" data-name="Line 137" x2="138" y2="76" transform="translate(4466.5 4816.5)" fill="none" stroke="rgba(65,106,116,0.73)" stroke-width="4"/>
    <line id="Line_138" data-name="Line 138" y2="154" transform="translate(4604.5 4738.5)" fill="none" stroke="rgba(65,106,116,0.73)" stroke-width="4"/>
    <line id="Line_139" data-name="Line 139" y1="79" x2="69" transform="translate(4535.5 4892.5)" fill="none" stroke="rgba(65,106,116,0.73)" stroke-width="4"/>
    <line id="Line_140" data-name="Line 140" x1="69" y2="139" transform="translate(4466.5 4971.5)" fill="none" stroke="rgba(65,106,116,0.73)" stroke-width="4"/>
    <line id="Line_141" data-name="Line 141" y1="90" x2="69" transform="translate(4397.5 5110.5)" fill="none" stroke="rgba(65,106,116,0.73)" stroke-width="4"/>
    <line id="Line_142" data-name="Line 142" x1="138" y2="57" transform="translate(4259.5 5200.5)" fill="none" stroke="rgba(65,106,116,0.73)" stroke-width="4"/>
    <line id="Line_143" data-name="Line 143" y1="22" x2="138" transform="translate(4121.5 5257.5)" fill="none" stroke="rgba(65,106,116,0.73)" stroke-width="4"/>
    <line id="Line_144" data-name="Line 144" x1="69" y1="45" transform="translate(4052.5 5234.5)" fill="none" stroke="rgba(65,106,116,0.73)" stroke-width="4"/>
    <line id="Line_145" data-name="Line 145" x1="138" y2="120" transform="translate(4052.5 5114.5)" fill="none" stroke="rgba(65,106,116,0.73)" stroke-width="4"/>
    <line id="Line_146" data-name="Line 146" x1="69" y2="165" transform="translate(4121.5 5114.5)" fill="none" stroke="rgba(65,106,116,0.73)" stroke-width="4"/>
    <line id="Line_147" data-name="Line 147" x2="69" y2="143" transform="translate(4190.5 5114.5)" fill="none" stroke="rgba(65,106,116,0.73)" stroke-width="4"/>
    <line id="Line_148" data-name="Line 148" y1="203" x2="69" transform="translate(4190.5 4911.5)" fill="none" stroke="rgba(65,106,116,0.73)" stroke-width="4"/>
    <line id="Line_149" data-name="Line 149" y1="32" x2="138" transform="translate(4190.5 5082.5)" fill="none" stroke="rgba(65,106,116,0.73)" stroke-width="4"/>
    <line id="Line_150" data-name="Line 150" x2="69" y2="171" transform="translate(4259.5 4911.5)" fill="none" stroke="rgba(65,106,116,0.73)" stroke-width="4"/>
    <line id="Line_151" data-name="Line 151" x1="69" y2="111" transform="translate(4328.5 4971.5)" fill="none" stroke="rgba(65,106,116,0.73)" stroke-width="4"/>
    <line id="Line_152" data-name="Line 152" x1="138" y1="25" transform="translate(4328.5 5082.5)" fill="none" stroke="rgba(65,106,116,0.73)" stroke-width="4"/>
    <line id="Line_153" data-name="Line 153" x1="69" y1="118" transform="translate(4328.5 5082.5)" fill="none" stroke="rgba(65,106,116,0.73)" stroke-width="4"/>
    <g id="Ellipse_126" data-name="Ellipse 126" transform="translate(3905 4345)" fill="#416a74" stroke="rgba(65,106,116,0.73)" stroke-width="4">
      <circle cx="34.5" cy="34.5" r="34.5" stroke="none"/>
      <circle cx="34.5" cy="34.5" r="32.5" fill="none"/>
    </g>
    <line id="Line_154" data-name="Line 154" y1="147" x2="114" transform="translate(3825.5 4379.5)" fill="none" stroke="rgba(65,106,116,0.73)" stroke-width="4"/>
    <line id="Line_155" data-name="Line 155" x1="113" y1="15" transform="translate(3939.5 4379.5)" fill="none" stroke="rgba(65,106,116,0.73)" stroke-width="4"/>
    <g id="Ellipse_127" data-name="Ellipse 127" transform="translate(3916 5223)" fill="#416a74" stroke="rgba(65,106,116,0.73)" stroke-width="4">
      <circle cx="34.5" cy="34.5" r="34.5" stroke="none"/>
      <circle cx="34.5" cy="34.5" r="32.5" fill="none"/>
    </g>
    <line id="Line_156" data-name="Line 156" x1="125" y1="58" transform="translate(3825.5 5199.5)" fill="none" stroke="rgba(65,106,116,0.73)" stroke-width="4"/>
    <line id="Line_157" data-name="Line 157" y1="23" x2="102" transform="translate(3950.5 5234.5)" fill="none" stroke="rgba(65,106,116,0.73)" stroke-width="4"/>
  </g>
</svg>
